<?xml version="1.0" encoding="utf-8"?>
<!-- Generator: Adobe Illustrator 19.0.0, SVG Export Plug-In . SVG Version: 6.00 Build 0)  -->
<svg version="1.1" id="Layer_1" xmlns="http://www.w3.org/2000/svg" xmlns:xlink="http://www.w3.org/1999/xlink" x="0px" y="0px"
	 viewBox="42.5 151 289 492" style="enable-background:new 42.5 151 289 492;" xml:space="preserve">
<style type="text/css">
	.st0{fill:#FFFFFF;}
</style>
<g>
	<g>
		<path class="st0" d="M42.5,396.9c0,7.2,2.8,14,7.8,19.1l219.2,219.1c5.1,5.1,11.8,7.9,19,7.9s14-2.8,19-7.9l16.1-16.1
			c5.1-5.1,7.9-11.8,7.9-19c0-7.2-2.8-14-7.9-19L139.6,396.9L323.5,213c10.5-10.5,10.5-27.6,0-38.1l-16.1-16.1
			c-5.1-5.1-11.8-7.9-19-7.9s-14,2.8-19,7.9L50.3,377.8C45.3,382.9,42.5,389.7,42.5,396.9z"/>
	</g>
</g>
</svg>
