<?xml version="1.0" encoding="utf-8"?>
<!-- Generator: Adobe Illustrator 19.0.0, SVG Export Plug-In . SVG Version: 6.00 Build 0)  -->
<svg version="1.1" id="Layer_1" xmlns="http://www.w3.org/2000/svg" xmlns:xlink="http://www.w3.org/1999/xlink" x="0px" y="0px"
	 viewBox="-49 141 512 512" style="enable-background:new -49 141 512 512;" xml:space="preserve">
<style type="text/css">
	.st0{fill:#FFFFFF;}
</style>
<g>
	<g>
		<path class="st0" d="M207,141C65.5,141-49,255.5-49,397c0,141.5,114.5,256,256,256c141.5,0,256-114.5,256-256
			C463,255.5,348.5,141,207,141z M207,618.9C84.7,618.9-14.9,519.3-14.9,397S84.7,175.1,207,175.1S428.9,274.7,428.9,397
			S329.3,618.9,207,618.9z"/>
	</g>
</g>
<g>
	<g>
		<path class="st0" d="M259.8,391.9H204v-95.1c0-9.4-7.6-17.1-17.1-17.1s-17.1,7.6-17.1,17.1V409c0,9.4,7.6,17.1,17.1,17.1h72.9
			c9.4,0,17.1-7.6,17.1-17.1S269.2,391.9,259.8,391.9z"/>
	</g>
</g>
</svg>
