<?xml version="1.0" encoding="utf-8"?>
<!-- Generator: Adobe Illustrator 19.0.0, SVG Export Plug-In . SVG Version: 6.00 Build 0)  -->
<svg version="1.1" id="Layer_1" xmlns="http://www.w3.org/2000/svg" xmlns:xlink="http://www.w3.org/1999/xlink" x="0px" y="0px"
	 viewBox="-98 282 512 512" style="enable-background:new -98 282 512 512;" xml:space="preserve">
<path d="M-23,794h167V612H84v-60h60v-75c0-41.4,33.6-75,75-75h75v60h-60c-16.5,0-30,13.5-30,30v60h87.3l-10,60H204v182h135
	c41.4,0,75-33.6,75-75V357c0-41.4-33.6-75-75-75H-23c-41.4,0-75,33.6-75,75v362C-98,760.4-64.4,794-23,794z M-68,357
	c0-24.8,20.2-45,45-45h362c24.8,0,45,20.2,45,45v362c0,24.8-20.2,45-45,45H234V642h72.7l20-120H234v-30h90V372H219
	c-57.9,0-105,47.1-105,105v45H54v120h60v122H-23c-24.8,0-45-20.2-45-45V357z"/>
</svg>
