<?xml version="1.0" encoding="utf-8"?>
<!-- Generator: Adobe Illustrator 19.0.0, SVG Export Plug-In . SVG Version: 6.00 Build 0)  -->
<svg version="1.1" id="Layer_1" xmlns="http://www.w3.org/2000/svg" xmlns:xlink="http://www.w3.org/1999/xlink" x="0px" y="0px"
	 viewBox="-98 282 512 512" style="enable-background:new -98 282 512 512;" xml:space="preserve">
<path d="M275.4,282H40.6C-35.8,282-98,344.2-98,420.6v234.8C-98,731.8-35.8,794,40.6,794h234.8c76.4,0,138.6-62.2,138.6-138.6V420.6
	C414,344.2,351.8,282,275.4,282z M384,655.4c0,59.9-48.7,108.6-108.6,108.6H40.6C-19.3,764-68,715.3-68,655.4V420.6
	C-68,360.7-19.3,312,40.6,312h234.8c59.9,0,108.6,48.7,108.6,108.6V655.4z"/>
<path d="M158,398c-77.2,0-140,62.8-140,140s62.8,140,140,140s140-62.8,140-140S235.2,398,158,398z M158,648
	c-60.6,0-110-49.3-110-110c0-60.6,49.3-110,110-110c60.6,0,110,49.3,110,110C268,598.6,218.6,648,158,648z"/>
<path d="M301.3,348.3c-22.8,0-41.4,18.6-41.4,41.4s18.6,41.4,41.4,41.4s41.4-18.6,41.4-41.4S324.2,348.3,301.3,348.3z M301.3,401
	c-6.3,0-11.4-5.1-11.4-11.4c0-6.3,5.1-11.4,11.4-11.4s11.4,5.1,11.4,11.4C312.7,395.9,307.6,401,301.3,401z"/>
</svg>
