<?xml version="1.0" encoding="utf-8"?>
<!-- Generator: Adobe Illustrator 19.0.0, SVG Export Plug-In . SVG Version: 6.00 Build 0)  -->
<svg version="1.1" id="Layer_1" xmlns="http://www.w3.org/2000/svg" xmlns:xlink="http://www.w3.org/1999/xlink" x="0px" y="0px"
	 viewBox="-49 205 512 384" style="enable-background:new -49 205 512 384;" xml:space="preserve">
<g>
	<g>
		<path d="M420.3,205H-6.3c-23.5,0-42.7,19.1-42.7,42.7v298.7c0,23.5,19.1,42.7,42.7,42.7h426.7c23.5,0,42.7-19.1,42.7-42.7V247.7
			C463,224.1,443.9,205,420.3,205z M-6.3,226.3h426.7c1.6,0,3,0.6,4.4,0.9C387.8,261,265.3,373.1,222.5,411.7
			c-3.4,3-8.8,6.6-15.5,6.6s-12.1-3.6-15.5-6.6C148.7,373.1,26.2,261-10.8,227.2C-9.3,226.9-7.9,226.3-6.3,226.3z M-27.7,546.3
			V247.7c0-2.1,0.6-4,1.2-5.9C1.8,267.6,87.3,345.8,142.7,396.2C87.4,443.7,2,524.7-26.5,551.9C-27,550.1-27.7,548.3-27.7,546.3z
			 M420.3,567.7H-6.3c-1.7,0-3.2-0.6-4.8-1c29.4-28.1,115.5-109.6,169.7-156c7.1,6.4,13.5,12.3,18.6,16.9
			c8.8,7.9,19.1,12.1,29.8,12.1s21-4.2,29.8-12.1c5.1-4.6,11.6-10.4,18.6-16.9c54.3,46.4,140.3,127.9,169.7,156
			C423.6,567.1,422,567.7,420.3,567.7z M441.7,546.3c0,2-0.6,3.7-1.1,5.6c-28.5-27.2-114-108.2-169.2-155.7
			c55.4-50.4,140.9-128.6,169.2-154.5c0.6,1.9,1.2,3.8,1.2,5.9V546.3z"/>
	</g>
</g>
</svg>
