<?xml version="1.0" encoding="utf-8"?>
<!-- Generator: Adobe Illustrator 19.0.0, SVG Export Plug-In . SVG Version: 6.00 Build 0)  -->
<svg version="1.1" id="Layer_1" xmlns="http://www.w3.org/2000/svg" xmlns:xlink="http://www.w3.org/1999/xlink" x="0px" y="0px"
	 viewBox="-49 141 512 387.8" style="enable-background:new -49 141 512 387.8;" xml:space="preserve">
<path d="M285.8,312l-113.1-61.9c-6.5-3.6-14.2-3.4-20.6,0.4c-6.4,3.8-10.2,10.5-10.2,17.9V391c0,7.4,3.8,14,10.1,17.8
	c3.3,2,7,3,10.7,3c3.4,0,6.7-0.8,9.8-2.5l113.1-60.8c6.7-3.6,10.9-10.6,10.9-18.2C296.6,322.7,292.5,315.7,285.8,312z M171.9,375.6
	v-91.7l84.5,46.3L171.9,375.6z"/>
<path d="M459.2,232.5l0-0.2c-0.4-4.1-4.8-40.8-22.6-59.4c-20.6-21.9-43.9-24.6-55.2-25.9c-0.9-0.1-1.8-0.2-2.5-0.3l-0.9-0.1
	c-67.7-4.9-169.9-5.6-170.9-5.6l-0.1,0l-0.1,0c-1,0-103.2,0.7-171.5,5.6l-0.9,0.1c-0.7,0.1-1.5,0.2-2.4,0.3
	c-11.1,1.3-34.2,3.9-54.9,26.7c-17,18.4-21.9,54.3-22.4,58.3l-0.1,0.5c-0.2,1.7-3.8,42.5-3.8,83.5v38.3c0,41,3.6,81.8,3.8,83.5
	l0,0.3c0.4,4.1,4.7,40,22.5,58.7c19.4,21.2,43.9,24,57,25.5c2.1,0.2,3.9,0.4,5.1,0.7l1.2,0.2c39.1,3.7,161.6,5.6,166.8,5.6l0.2,0
	l0.2,0c1,0,103.2-0.7,170.9-5.6l0.9-0.1c0.9-0.1,1.8-0.2,2.9-0.3c11-1.2,34-3.6,54.4-26c17-18.4,21.9-54.3,22.4-58.3l0.1-0.5
	c0.2-1.7,3.8-42.5,3.8-83.5v-38.3C463,275.1,459.4,234.2,459.2,232.5z M433,354.4c0,37.9-3.3,77-3.6,80.6
	c-1.3,9.9-6.4,32.6-14.7,41.6c-12.8,14-25.8,15.4-35.4,16.4c-1.2,0.1-2.2,0.2-3.2,0.4c-65.5,4.7-163.8,5.5-168.4,5.5
	c-5.1-0.1-125.8-1.9-163.7-5.4c-1.9-0.3-4-0.6-6.3-0.8c-11.2-1.3-26.6-3-38.4-16l-0.3-0.3c-8.1-8.5-13.2-29.7-14.4-41.1
	c-0.2-2.7-3.6-42.2-3.6-80.7v-38.3c0-37.9,3.3-76.9,3.6-80.6c1.5-11.6,6.8-33,14.7-41.6c13.1-14.5,27-16.1,36.2-17.1
	c0.9-0.1,1.7-0.2,2.4-0.3c66.4-4.8,165.5-5.5,169-5.5c3.6,0,102.6,0.7,168.4,5.5c0.8,0.1,1.7,0.2,2.6,0.3
	c9.4,1.1,23.7,2.7,36.7,16.6l0.1,0.1c8.1,8.5,13.2,30.1,14.4,41.8c0.2,2.6,3.6,42.2,3.6,80.7V354.4z"/>
</svg>
