<?xml version="1.0" encoding="utf-8"?>
<!-- Generator: Adobe Illustrator 19.0.0, SVG Export Plug-In . SVG Version: 6.00 Build 0)  -->
<svg version="1.1" id="Layer_1" xmlns="http://www.w3.org/2000/svg" xmlns:xlink="http://www.w3.org/1999/xlink" x="0px" y="0px"
	 viewBox="0 0 430.8 101.1" style="enable-background:new 0 0 430.8 101.1;" xml:space="preserve">
<style type="text/css">
	.st0{fill:#F85838;}
	.st1{fill:#F85838;stroke:#FFFFFF;stroke-width:5;stroke-miterlimit:10;}
	.st2{fill:#FFFFFF;}
</style>
<rect id="XMLID_3_" x="15.5" y="15.5" class="st0" width="415.3" height="85.6"/>
<rect id="XMLID_1_" x="2.5" y="2.5" class="st1" width="415.3" height="85.6"/>
<g id="XMLID_2_">
	<path id="XMLID_18_" class="st2" d="M121.7,57.4c-2.7-1.5-4.8-3.5-6.4-6.1c-1.5-2.6-2.3-5.5-2.3-8.8c0-3.3,0.8-6.2,2.3-8.8
		c1.5-2.6,3.7-4.6,6.4-6.1c2.7-1.5,5.8-2.2,9.1-2.2c2.8,0,5.4,0.5,7.7,1.5c2.3,1,4.2,2.4,5.8,4.3l-4.9,4.5c-2.2-2.6-5-3.8-8.3-3.8
		c-2,0-3.8,0.4-5.4,1.3c-1.6,0.9-2.8,2.1-3.7,3.7c-0.9,1.6-1.3,3.4-1.3,5.4c0,2,0.4,3.8,1.3,5.4c0.9,1.6,2.1,2.8,3.7,3.7
		c1.6,0.9,3.4,1.3,5.4,1.3c3.3,0,6-1.3,8.3-3.9l4.9,4.5c-1.6,1.9-3.5,3.4-5.8,4.4c-2.3,1-4.9,1.5-7.7,1.5
		C127.4,59.6,124.4,58.8,121.7,57.4z"/>
	<path id="XMLID_20_" class="st2" d="M170.4,52h-15.3l-2.9,7h-7.8l14.6-32.9h7.5L181.3,59h-8L170.4,52z M168,46.2l-5.2-12.6
		l-5.2,12.6H168z"/>
	<path id="XMLID_23_" class="st2" d="M205.7,59l-6.3-9.2H199h-6.6V59h-7.6V26.1H199c2.9,0,5.4,0.5,7.6,1.5c2.1,1,3.8,2.3,5,4.1
		c1.2,1.8,1.7,3.9,1.7,6.3c0,2.4-0.6,4.5-1.8,6.3s-2.8,3.1-5,4.1l7.4,10.6H205.7z M203.7,33.8c-1.2-1-2.9-1.5-5.2-1.5h-6.2v11.5h6.2
		c2.3,0,4-0.5,5.2-1.5c1.2-1,1.8-2.4,1.8-4.2C205.5,36.2,204.9,34.8,203.7,33.8z"/>
	<path id="XMLID_26_" class="st2" d="M219.2,26.1h14.9c3.6,0,6.7,0.7,9.5,2c2.7,1.4,4.9,3.3,6.4,5.8c1.5,2.5,2.3,5.4,2.3,8.6
		s-0.8,6.2-2.3,8.6c-1.5,2.5-3.6,4.4-6.4,5.8c-2.7,1.4-5.9,2-9.5,2h-14.9V26.1z M233.8,52.8c3.3,0,5.9-0.9,7.9-2.7
		c2-1.8,2.9-4.3,2.9-7.4c0-3.1-1-5.6-2.9-7.4c-2-1.8-4.6-2.7-7.9-2.7h-6.9v20.4H233.8z"/>
	<path id="XMLID_29_" class="st2" d="M258,26.1h7.6V59H258V26.1z"/>
	<path id="XMLID_31_" class="st2" d="M280.1,57.4c-2.7-1.5-4.9-3.5-6.4-6.1c-1.5-2.6-2.3-5.5-2.3-8.7c0-3.2,0.8-6.1,2.3-8.7
		c1.5-2.6,3.7-4.6,6.4-6.1c2.7-1.5,5.8-2.2,9.2-2.2s6.5,0.7,9.2,2.2c2.7,1.5,4.9,3.5,6.4,6.1c1.6,2.6,2.3,5.5,2.3,8.7
		c0,3.2-0.8,6.1-2.3,8.7c-1.6,2.6-3.7,4.6-6.4,6.1c-2.7,1.5-5.8,2.2-9.2,2.2S282.8,58.8,280.1,57.4z M294.6,51.8
		c1.6-0.9,2.8-2.1,3.7-3.7c0.9-1.6,1.3-3.4,1.3-5.4c0-2-0.4-3.8-1.3-5.4c-0.9-1.6-2.1-2.8-3.7-3.7c-1.6-0.9-3.3-1.3-5.3-1.3
		s-3.7,0.4-5.3,1.3c-1.6,0.9-2.8,2.1-3.7,3.7c-0.9,1.6-1.3,3.4-1.3,5.4c0,2,0.4,3.8,1.3,5.4c0.9,1.6,2.1,2.8,3.7,3.7
		c1.6,0.9,3.3,1.3,5.3,1.3S293,52.6,294.6,51.8z"/>
</g>
<g id="XMLID_17_">
</g>
<g id="XMLID_34_">
</g>
<g id="XMLID_35_">
</g>
<g id="XMLID_36_">
</g>
<g id="XMLID_37_">
</g>
<g id="XMLID_38_">
</g>
</svg>
