<?xml version="1.0" encoding="utf-8"?>
<!-- Generator: Adobe Illustrator 19.0.0, SVG Export Plug-In . SVG Version: 6.00 Build 0)  -->
<svg version="1.1" id="Layer_1" xmlns="http://www.w3.org/2000/svg" xmlns:xlink="http://www.w3.org/1999/xlink" x="0px" y="0px"
	 viewBox="0 0 430.8 101.1" style="enable-background:new 0 0 430.8 101.1;" xml:space="preserve">
<style type="text/css">
	.st0{fill:#F85838;}
	.st1{fill:#F85838;stroke:#FFFFFF;stroke-width:5;stroke-miterlimit:10;}
	.st2{fill:#FFFFFF;}
</style>
<rect id="XMLID_3_" x="15.5" y="15.5" class="st0" width="415.3" height="85.6"/>
<rect id="XMLID_1_" x="2.5" y="2.5" class="st1" width="415.3" height="85.6"/>
<g id="XMLID_2_">
	<path id="XMLID_18_" class="st2" d="M151,57.4c-2.7-1.5-4.8-3.5-6.4-6.1c-1.5-2.6-2.3-5.5-2.3-8.8c0-3.3,0.8-6.2,2.3-8.8
		c1.5-2.6,3.7-4.6,6.4-6.1c2.7-1.5,5.8-2.2,9.1-2.2c2.8,0,5.4,0.5,7.7,1.5c2.3,1,4.2,2.4,5.8,4.3l-4.9,4.5c-2.2-2.6-5-3.8-8.3-3.8
		c-2,0-3.8,0.4-5.4,1.3c-1.6,0.9-2.8,2.1-3.7,3.7c-0.9,1.6-1.3,3.4-1.3,5.4c0,2,0.4,3.8,1.3,5.4c0.9,1.6,2.1,2.8,3.7,3.7
		c1.6,0.9,3.4,1.3,5.4,1.3c3.3,0,6-1.3,8.3-3.9l4.9,4.5c-1.6,1.9-3.5,3.4-5.8,4.4c-2.3,1-4.9,1.5-7.7,1.5
		C156.7,59.6,153.7,58.8,151,57.4z"/>
	<path id="XMLID_20_" class="st2" d="M184.8,57.4c-2.7-1.5-4.9-3.5-6.4-6.1c-1.5-2.6-2.3-5.5-2.3-8.7c0-3.2,0.8-6.1,2.3-8.7
		c1.5-2.6,3.7-4.6,6.4-6.1c2.7-1.5,5.8-2.2,9.2-2.2c3.4,0,6.5,0.7,9.2,2.2c2.7,1.5,4.9,3.5,6.4,6.1c1.6,2.6,2.3,5.5,2.3,8.7
		c0,3.2-0.8,6.1-2.3,8.7c-1.6,2.6-3.7,4.6-6.4,6.1c-2.7,1.5-5.8,2.2-9.2,2.2C190.6,59.6,187.5,58.8,184.8,57.4z M199.2,51.8
		c1.6-0.9,2.8-2.1,3.7-3.7c0.9-1.6,1.3-3.4,1.3-5.4c0-2-0.4-3.8-1.3-5.4c-0.9-1.6-2.1-2.8-3.7-3.7c-1.6-0.9-3.3-1.3-5.3-1.3
		c-1.9,0-3.7,0.4-5.3,1.3s-2.8,2.1-3.7,3.7c-0.9,1.6-1.3,3.4-1.3,5.4c0,2,0.4,3.8,1.3,5.4c0.9,1.6,2.1,2.8,3.7,3.7s3.3,1.3,5.3,1.3
		C195.9,53.1,197.7,52.6,199.2,51.8z"/>
	<path id="XMLID_23_" class="st2" d="M238.6,59l-6.3-9.2h-0.4h-6.6V59h-7.6V26.1h14.2c2.9,0,5.4,0.5,7.6,1.5c2.1,1,3.8,2.3,5,4.1
		c1.2,1.8,1.7,3.9,1.7,6.3c0,2.4-0.6,4.5-1.8,6.3c-1.2,1.8-2.8,3.1-5,4.1l7.4,10.6H238.6z M236.7,33.8c-1.2-1-2.9-1.5-5.2-1.5h-6.2
		v11.5h6.2c2.3,0,4-0.5,5.2-1.5c1.2-1,1.8-2.4,1.8-4.2C238.5,36.2,237.9,34.8,236.7,33.8z"/>
	<path id="XMLID_26_" class="st2" d="M277.6,52.9V59h-25.4V26.1H277v6.1h-17.3v7.1H275v5.9h-15.3v7.6H277.6z"/>
</g>
<g id="XMLID_17_">
</g>
<g id="XMLID_28_">
</g>
<g id="XMLID_29_">
</g>
<g id="XMLID_30_">
</g>
<g id="XMLID_31_">
</g>
<g id="XMLID_32_">
</g>
</svg>
