<?xml version="1.0" encoding="utf-8"?>
<!-- Generator: Adobe Illustrator 19.0.0, SVG Export Plug-In . SVG Version: 6.00 Build 0)  -->
<svg version="1.1" id="Layer_1" xmlns="http://www.w3.org/2000/svg" xmlns:xlink="http://www.w3.org/1999/xlink" x="0px" y="0px"
	 viewBox="0 0 430.8 101.1" style="enable-background:new 0 0 430.8 101.1;" xml:space="preserve">
<style type="text/css">
	.st0{fill:#F85838;}
	.st1{fill:#F85838;stroke:#FFFFFF;stroke-width:5;stroke-miterlimit:10;}
	.st2{fill:#FFFFFF;}
</style>
<rect id="XMLID_3_" x="15.5" y="15.5" class="st0" width="415.3" height="85.6"/>
<rect id="XMLID_1_" x="2.5" y="2.5" class="st1" width="415.3" height="85.6"/>
<g id="XMLID_2_">
	<path id="XMLID_18_" class="st2" d="M134.5,27.6c2.1,1,3.8,2.3,5,4.1c1.2,1.8,1.7,3.9,1.7,6.3c0,2.4-0.6,4.5-1.7,6.3
		c-1.2,1.8-2.8,3.2-5,4.1c-2.1,1-4.7,1.4-7.6,1.4h-6.6V59h-7.6V26.1h14.2C129.8,26.1,132.3,26.6,134.5,27.6z M131.7,42.3
		c1.2-1,1.8-2.4,1.8-4.2c0-1.8-0.6-3.3-1.8-4.2c-1.2-1-2.9-1.5-5.2-1.5h-6.2v11.4h6.2C128.8,43.7,130.5,43.3,131.7,42.3z"/>
	<path id="XMLID_21_" class="st2" d="M146.6,26.1h7.6V59h-7.6V26.1z"/>
	<path id="XMLID_23_" class="st2" d="M162,26.1h7.6v26.7H186V59H162V26.1z"/>
	<path id="XMLID_25_" class="st2" d="M212.2,52H197l-2.9,7h-7.8l14.6-32.9h7.5L223.1,59h-8L212.2,52z M209.8,46.2l-5.2-12.6
		l-5.2,12.6H209.8z"/>
	<path id="XMLID_28_" class="st2" d="M231.7,32.3h-10.5v-6.2h28.6v6.2h-10.5V59h-7.6V32.3z"/>
	<path id="XMLID_30_" class="st2" d="M279.4,52.9V59h-25.4V26.1h24.8v6.1h-17.3v7.1h15.3v5.9h-15.3v7.6H279.4z"/>
	<path id="XMLID_32_" class="st2" d="M288.7,58.5c-2.4-0.7-4.4-1.6-5.8-2.7l2.6-5.7c1.4,1,3.1,1.9,5,2.5c1.9,0.6,3.9,0.9,5.8,0.9
		c2.2,0,3.8-0.3,4.8-1c1-0.6,1.5-1.5,1.5-2.6c0-0.8-0.3-1.4-0.9-1.9c-0.6-0.5-1.4-0.9-2.3-1.2c-1-0.3-2.2-0.7-3.9-1
		c-2.5-0.6-4.6-1.2-6.1-1.8c-1.6-0.6-3-1.5-4.1-2.9c-1.1-1.3-1.7-3.1-1.7-5.3c0-1.9,0.5-3.6,1.5-5.2c1-1.5,2.6-2.8,4.7-3.7
		c2.1-0.9,4.6-1.4,7.6-1.4c2.1,0,4.1,0.3,6.1,0.8c2,0.5,3.8,1.2,5.3,2.2l-2.3,5.8c-3-1.7-6.1-2.6-9.1-2.6c-2.1,0-3.7,0.3-4.7,1
		c-1,0.7-1.5,1.6-1.5,2.7c0,1.1,0.6,2,1.8,2.5c1.2,0.5,3,1.1,5.4,1.6c2.5,0.6,4.6,1.2,6.2,1.8c1.6,0.6,3,1.5,4.1,2.8
		c1.1,1.3,1.7,3,1.7,5.2c0,1.9-0.5,3.6-1.6,5.1c-1,1.5-2.6,2.8-4.7,3.7c-2.1,0.9-4.6,1.4-7.7,1.4C293.6,59.6,291.1,59.2,288.7,58.5z
		"/>
</g>
<g id="XMLID_17_">
</g>
<g id="XMLID_34_">
</g>
<g id="XMLID_35_">
</g>
<g id="XMLID_36_">
</g>
<g id="XMLID_37_">
</g>
<g id="XMLID_38_">
</g>
</svg>
