<?xml version="1.0" encoding="utf-8"?>
<!-- Generator: Adobe Illustrator 19.0.0, SVG Export Plug-In . SVG Version: 6.00 Build 0)  -->
<svg version="1.1" id="Layer_1" xmlns="http://www.w3.org/2000/svg" xmlns:xlink="http://www.w3.org/1999/xlink" x="0px" y="0px"
	 viewBox="0 0 430.8 101.1" style="enable-background:new 0 0 430.8 101.1;" xml:space="preserve">
<style type="text/css">
	.st0{fill:#F85838;}
	.st1{fill:#F85838;stroke:#FFFFFF;stroke-width:5;stroke-miterlimit:10;}
	.st2{fill:#FFFFFF;}
</style>
<rect id="XMLID_3_" x="15.5" y="15.5" class="st0" width="415.3" height="85.6"/>
<rect id="XMLID_1_" x="2.5" y="2.5" class="st1" width="415.3" height="85.6"/>
<g id="XMLID_2_">
	<path id="XMLID_18_" class="st2" d="M158.8,47.4V59h-7.6V47.3l-12.7-21.1h8.1l8.8,14.6l8.8-14.6h7.5L158.8,47.4z"/>
	<path id="XMLID_20_" class="st2" d="M180.1,57.4c-2.7-1.5-4.9-3.5-6.4-6.1c-1.5-2.6-2.3-5.5-2.3-8.7c0-3.2,0.8-6.1,2.3-8.7
		c1.5-2.6,3.7-4.6,6.4-6.1c2.7-1.5,5.8-2.2,9.2-2.2c3.4,0,6.5,0.7,9.2,2.2c2.7,1.5,4.9,3.5,6.4,6.1c1.6,2.6,2.3,5.5,2.3,8.7
		c0,3.2-0.8,6.1-2.3,8.7c-1.6,2.6-3.7,4.6-6.4,6.1c-2.7,1.5-5.8,2.2-9.2,2.2C185.9,59.6,182.8,58.8,180.1,57.4z M194.6,51.8
		c1.6-0.9,2.8-2.1,3.7-3.7c0.9-1.6,1.3-3.4,1.3-5.4c0-2-0.4-3.8-1.3-5.4c-0.9-1.6-2.1-2.8-3.7-3.7c-1.6-0.9-3.3-1.3-5.3-1.3
		c-1.9,0-3.7,0.4-5.3,1.3s-2.8,2.1-3.7,3.7c-0.9,1.6-1.3,3.4-1.3,5.4c0,2,0.4,3.8,1.3,5.4c0.9,1.6,2.1,2.8,3.7,3.7s3.3,1.3,5.3,1.3
		C191.2,53.1,193,52.6,194.6,51.8z"/>
	<path id="XMLID_23_" class="st2" d="M235.2,42.1h6.9v13.3c-1.8,1.3-3.8,2.4-6.2,3.1c-2.3,0.7-4.7,1.1-7.1,1.1
		c-3.4,0-6.5-0.7-9.2-2.2c-2.7-1.5-4.9-3.5-6.4-6.1c-1.5-2.6-2.3-5.5-2.3-8.8c0-3.3,0.8-6.2,2.3-8.8c1.5-2.6,3.7-4.6,6.5-6.1
		c2.8-1.5,5.9-2.2,9.3-2.2c2.9,0,5.5,0.5,7.8,1.5c2.3,1,4.3,2.4,5.9,4.2l-4.9,4.5c-2.3-2.5-5.2-3.7-8.5-3.7c-2.1,0-4,0.4-5.6,1.3
		c-1.6,0.9-2.9,2.1-3.8,3.7c-0.9,1.6-1.4,3.4-1.4,5.5c0,2,0.5,3.8,1.4,5.4c0.9,1.6,2.2,2.8,3.8,3.7c1.6,0.9,3.5,1.3,5.5,1.3
		c2.2,0,4.2-0.5,5.9-1.4V42.1z"/>
	<path id="XMLID_25_" class="st2" d="M270.8,52h-15.3l-2.9,7h-7.8l14.6-32.9h7.5L281.7,59h-8L270.8,52z M268.5,46.2l-5.2-12.6
		L258,46.2H268.5z"/>
</g>
<g id="XMLID_17_">
</g>
<g id="XMLID_28_">
</g>
<g id="XMLID_29_">
</g>
<g id="XMLID_30_">
</g>
<g id="XMLID_31_">
</g>
<g id="XMLID_32_">
</g>
</svg>
