<?xml version="1.0" encoding="utf-8"?>
<!-- Generator: Adobe Illustrator 19.0.0, SVG Export Plug-In . SVG Version: 6.00 Build 0)  -->
<svg version="1.1" id="Layer_1" xmlns="http://www.w3.org/2000/svg" xmlns:xlink="http://www.w3.org/1999/xlink" x="0px" y="0px"
	 viewBox="-535 481 512 512" style="enable-background:new -535 481 512 512;" xml:space="preserve">
<style type="text/css">
	.st0{fill:#F85838;}
</style>
<g>
	<g>
		<path class="st0" d="M-279,481c-141.5,0-256,114.5-256,256s114.5,256,256,256S-23,878.5-23,737S-137.5,481-279,481z M-279,958.9
			c-122.3,0-221.9-99.6-221.9-221.9s99.6-221.9,221.9-221.9S-57.1,614.7-57.1,737S-156.7,958.9-279,958.9z"/>
	</g>
</g>
<g>
	<g>
		<path class="st0" d="M-226.2,731.9H-282v-95.1c0-9.4-7.6-17.1-17.1-17.1s-17.1,7.6-17.1,17.1V749c0,9.4,7.6,17.1,17.1,17.1h72.9
			c9.4,0,17.1-7.6,17.1-17.1C-209.1,739.5-216.8,731.9-226.2,731.9z"/>
	</g>
</g>
</svg>
