<?xml version="1.0" encoding="utf-8"?>
<!-- Generator: Adobe Illustrator 19.0.0, SVG Export Plug-In . SVG Version: 6.00 Build 0)  -->
<svg version="1.1" id="Capa_1" xmlns="http://www.w3.org/2000/svg" xmlns:xlink="http://www.w3.org/1999/xlink" x="0px" y="0px"
	 viewBox="-243 333.9 512 334.1" style="enable-background:new -243 333.9 512 334.1;" xml:space="preserve">
<style type="text/css">
	.st0{fill:#F85838;}
</style>
<g>
	<g>
		<path class="st0" d="M226.7,375h-9.9c-4,0-7.9,0.6-11.5,1.6c-3.7-19.5-20.9-34.3-41.5-34.3h-9.9c-23.3,0-42.3,19-42.3,42.3v68.2
			H-85.6v-76.6c0-23.3-19-42.3-42.3-42.3h-9.9c-20.6,0-37.8,14.8-41.5,34.3c-3.7-1-7.5-1.6-11.5-1.6h-9.9c-23.3,0-42.3,19-42.3,42.3
			v175.8c0,23.3,19,42.3,42.3,42.3h9.9c4,0,7.9-0.6,11.5-1.6c3.7,19.5,20.9,34.3,41.5,34.3h9.9c23.3,0,42.3-19,42.3-42.3V556h197.1
			v69.8c0,23.3,19,42.3,42.3,42.3h9.9c20.6,0,37.8-14.8,41.5-34.3c3.7,1,7.5,1.6,11.5,1.6h9.9c23.3,0,42.3-19,42.3-42.3V417.3
			C269,394,250,375,226.7,375z M-180,584.7c0,5.9-4.8,10.8-10.8,10.8h-9.9c-5.9,0-10.8-4.8-10.8-10.8V408.9
			c0-5.9,4.8-10.8,10.8-10.8h9.9c5.9,0,10.8,4.8,10.8,10.8V584.7z M-117.1,617.4c0,5.9-4.8,10.8-10.8,10.8h-9.9
			c-5.9,0-10.8-4.8-10.8-10.8V376.2c0-5.9,4.8-10.8,10.8-10.8h9.9c5.9,0,10.8,4.8,10.8,10.8C-117.1,376.2-117.1,617.4-117.1,617.4z
			 M111.6,524.5H-85.6v-40.2h197.1L111.6,524.5L111.6,524.5z M174.5,625.8c0,5.9-4.8,10.8-10.8,10.8h-9.9c-5.9,0-10.8-4.8-10.8-10.8
			V384.6c0-5.9,4.8-10.8,10.8-10.8h9.9c5.9,0,10.8,4.8,10.8,10.8V625.8z M237.5,593.1c0,5.9-4.8,10.8-10.8,10.8h-9.9
			c-5.9,0-10.8-4.8-10.8-10.8V417.3c0-5.9,4.8-10.8,10.8-10.8h9.9c5.9,0,10.8,4.8,10.8,10.8V593.1z"/>
	</g>
</g>
</svg>
