<?xml version="1.0" encoding="utf-8"?>
<!-- Generator: Adobe Illustrator 19.0.0, SVG Export Plug-In . SVG Version: 6.00 Build 0)  -->
<svg version="1.1" id="Capa_1" xmlns="http://www.w3.org/2000/svg" xmlns:xlink="http://www.w3.org/1999/xlink" x="0px" y="0px"
	 viewBox="-242.9 245 511.8 512" style="enable-background:new -242.9 245 511.8 512;" xml:space="preserve">
<style type="text/css">
	.st0{fill:#F85838;}
</style>
<path class="st0" d="M268.9,577.9c0.1-24.2-16.9-45.1-40.6-50l-26.2-42c-13.8-22.2-39-36-65.8-36H94.2c0.3-14.3-1.4-28.6-5-42.4
	c15.4-7.3,22-25.7,14.7-41.1l-6.4-13.5C91,339.2,75.6,332.2,61,336.4c-7.5-17.6-20.2-32.4-36.4-42.6c-10.9-6.9-23.2-11.5-36-13.4
	c-1.3-0.2-2.7-0.2-4-0.4c-8.8-26.8-37.7-41.3-64.5-32.5c-26.8,8.8-41.3,37.7-32.5,64.5c1.5,4.4,3.5,8.6,6.1,12.5
	c-7,11.3-11.5,23.9-13.3,37c-0.6,4.1-0.9,8.3-0.9,12.5c0,14.9,3.5,29.5,10.3,42.8c-11,7.6-15.9,21.4-12.2,34.2
	c-22.4,3.7-42.4,16.8-53.8,36.2l-27.3,45.9c-2.2,0.7-4.5,1.3-6.7,2c-25.2,8.4-38.9,35.6-30.5,60.8c2.7,8.2,7.6,15.4,14,21.1
	c-10.2,6.1-16.5,17.2-16.5,29.1v34.1c0,9.7,4.1,19,11.4,25.5l11.4-12.7c-3.6-3.2-5.7-7.9-5.7-12.7v-34.1c0-9.4,7.6-17,17.1-17.1
	h443.6c9.4,0,17,7.6,17.1,17.1v34.1c0,9.4-7.6,17-17.1,17.1H-72.3v17.1h307.1c18.8,0,34.1-15.3,34.1-34.1v-34.1
	c0-12.3-6.7-23.6-17.4-29.6C262.6,606.7,268.9,592.7,268.9,577.9L268.9,577.9z M187.7,494.9l20.3,32.6l-89.7,7.8l-32-24
	c-1.5-1.1-3.3-1.7-5.1-1.7h-3.9c7.2-10.4,12.1-22.2,14.5-34.7c0.5-2.6,0.9-5.3,1.2-8h43.4C157.3,467,177,477.7,187.7,494.9
	L187.7,494.9z M82.1,360.1l6.4,13.6c2.8,6.1,0.9,13.3-4.6,17.2c-0.6-1.6-1.1-3.2-1.7-4.7l-14.3-33.9
	C73.7,351.6,79.5,354.7,82.1,360.1L82.1,360.1z M45.7,343.8l20.7,49.1c1.8,4.1,3.3,8.2,4.6,12.5c5.3,16.9,7.3,34.8,5.9,52.5
	c-0.3,4.7-0.9,9.4-1.8,14c-2.2,11.7-7.1,22.7-14.4,32.1c-1.7,2.1-3.5,4-5.4,5.8l-75.8,0.7c-17.2-10.7-31.8-25-42.8-42
	c-2.4-3.7-4.6-7.4-6.7-11.3l-24.6-47.2c-5.7-10.9-8.7-22.9-8.7-35.2l6.2,2.2l5.8-16l-10-3.6c1.2-5.3,2.9-10.4,5.1-15.3l19.2,12.8
	l9.5-14.2l-20-13.3c5.8-7.7,13-14.2,21.2-19.3l12,25.6l15.4-7.3l-12-25.6c8.8-3,18-4.4,27.3-4.1l-5.8,23.3l16.5,4.1l6.3-25.2
	c5.6,1.4,11,3.5,16.1,6.1L5.9,315l16,5.8l2.2-6.1C33.5,322.5,40.9,332.5,45.7,343.8L45.7,343.8z M-102.1,432.2l17,32.7
	c0.8,1.6,1.6,3,2.4,4.3c-6.5,1.8-13.3-1.4-16.1-7.5l-6.4-13.4C-107.8,442.8-106.5,436.3-102.1,432.2z M-63.8,262.2
	c12.3,0,23.7,6.7,29.7,17.5c-23.4,2-45.1,12.6-61.1,29.8c-7.4-17.2,0.5-37.1,17.7-44.5C-73.1,263.2-68.5,262.2-63.8,262.2
	L-63.8,262.2z M-161.3,495.9c9.6-16.3,27-26.9,46.2-28.6l0.8,1.6c7.2,15.4,25.4,22.1,40.9,15c0.1,0,0.2-0.1,0.2-0.1l0.1,0
	c7.8,10.8,16.9,20.6,27.1,29.1l-112.8,11.3c-7.1,0.7-14.2,1.8-21.2,3.2L-161.3,495.9z M-204.6,551.3c15.4-5.1,31.3-8.5,47.5-10.1
	l144.5-14.5h91l15.4,11.5l-99,14.1c-0.6,0.1-1.2,0.2-1.7,0.4L-167.7,612h-27.1c-17.2,0-31.1-13.9-31.1-31.1
	C-225.8,567.5-217.3,555.6-204.6,551.3z M218.6,612H201L5.2,594.6c-1.2-0.1-2.4,0-3.5,0.4L-48.1,612h-70.2L-2,569.1l110.5-15.8
	l108.4-9.6h1.6c1.2,0,2.4,0.1,3.6,0.2c17,1.9,29.8,16.4,29.8,33.9C251.9,596.7,236.9,612,218.6,612L218.6,612z"/>
<path class="st0" d="M-66.6,436.3l10.7,13.3c9.2-7.4,20.1-12.5,31.7-14.9l-3.4-16.7C-41.9,420.9-55.3,427.2-66.6,436.3L-66.6,436.3z
	"/>
<path class="st0" d="M17.9,463.4c-6.1,2.9-12.7,4.4-19.4,4.6l-1.4,0l0.4,17.1l1.4,0c14.8-0.4,29-5.8,40.4-15.3l-10.9-13.1
	C25.2,459.4,21.6,461.6,17.9,463.4L17.9,463.4z"/>
<path class="st0" d="M-30.7,412l4.8-16.4c-24.1-7.1-48.3,4.3-57.6,27.2l15.8,6.4C-61.7,414.4-46.5,407.3-30.7,412z"/>
<path class="st0" d="M-9.1,387.7l15.7,6.7c6.5-15.1,21.6-22.3,36.9-17.5l5.1-16.3C25.1,353.2,0.8,364.6-9.1,387.7L-9.1,387.7z"/>
<path class="st0" d="M-19.2,407.7l15.4-7.3l22.3,47.3L3.1,455L-19.2,407.7z"/>
<path class="st0" d="M20.4,414.8c9.2-7.4,20.1-12.5,31.7-14.9l-3.4-16.7c-14.3,2.9-27.6,9.2-39,18.3L20.4,414.8z"/>
<path class="st0" d="M-93.2,681.1c-3.9-6.2-10-10.6-17.2-12.2c-4.2-1-8.5-1.2-12.8-0.8c-0.1-0.6-0.2-1.1-0.3-1.6
	c-1.7-7-6.3-13-12.6-16.6c-12.6-7.3-29.1-3.5-36.8,8.4c-2.1,3.3-3.6,7-4.5,10.8c-7.7-1.3-15.7,0.8-21.7,5.7l-0.3,0.2
	c-5.5,4.3-8.9,10.8-9.4,17.7c-0.5,6.9,1.9,13.7,6.6,18.7l0.9,1c2.6,2.8,5.6,5.2,8.9,7.1c-3.4,6.8-3.5,14.7-0.4,21.6
	c6.3,13.1,21.5,19.2,35.1,14c3.9-1.5,7.5-3.6,10.6-6.3c5.2,5.2,12.3,8.2,19.7,8.2c0.6,0,1.3,0,2-0.1c7.2-0.4,14-3.8,18.7-9.3
	c4.4-5.2,6.6-12,5.9-18.8c-0.4-4-1.4-7.8-3.1-11.4c7-3.3,12-9.6,13.8-17C-88.5,693.7-89.6,686.8-93.2,681.1L-93.2,681.1z
	 M-114.2,685.5c2.7,0.6,5,2.2,6.5,4.5c1.2,1.9,1.6,4.1,1.1,6.3c-0.9,3.9-4.7,6.5-9,6.6c-6.3-4.6-13.8-7.2-21.5-7.5
	C-133.3,687.6-123.8,683.3-114.2,685.5L-114.2,685.5z M-158.4,667.5c2.7-4.3,9-5.6,13.8-2.8c2.3,1.2,3.9,3.4,4.5,5.9
	c0.3,1.1,0.3,2.3,0.1,3.5c-6.4,4.1-11.3,10.2-14,17.3c-3.3-2.6-5.6-6.2-6.6-10.3C-161.8,676.4-161,671.5-158.4,667.5z M-191.7,694
	c0.2-2.3,1.3-4.4,3.1-5.8l0.3-0.2c3.4-2.7,8-3,11.7-0.8c2.3,7.2,6.7,13.5,12.7,18c-8.3,4.2-18.4,2.5-24.8-4.3l-0.9-1
	C-191.1,698.4-191.8,696.2-191.7,694z M-163.8,739.2c-5.1,2-11.2-0.4-13.4-5.1c-1.5-3.3-0.6-7.3,2.2-9.6c0.5,0,1.1,0,1.6,0
	c7.5,0,14.9-2.2,21.1-6.3c0.9,3.5,0.6,7.3-0.8,10.7C-155,733.7-158.9,737.4-163.8,739.2L-163.8,739.2z M-119.7,736.6
	c-1.7,2-4.2,3.2-6.8,3.3c-4.3,0.3-8.3-2-10.2-5.8c2.5-6.9,2.8-14.4,0.7-21.5c9.6,1.1,17.4,8.4,18.3,17.8
	C-117.5,732.6-118.2,734.9-119.7,736.6L-119.7,736.6z"/>
</svg>
