<?xml version="1.0" encoding="utf-8"?>
<!-- Generator: Adobe Illustrator 19.0.0, SVG Export Plug-In . SVG Version: 6.00 Build 0)  -->
<svg version="1.1" id="Capa_1" xmlns="http://www.w3.org/2000/svg" xmlns:xlink="http://www.w3.org/1999/xlink" x="0px" y="0px"
	 viewBox="-243 262.9 512 476.2" style="enable-background:new -243 262.9 512 476.2;" xml:space="preserve">
<style type="text/css">
	.st0{fill:#F85838;}
</style>
<g>
	<g>
		<path class="st0" d="M-234.9,532.9c4.1,0.8,8.4-1.1,10.5-4.7c2.1-3.5,1.8-8.1-0.7-11.4c-2.7-3.4-7.3-4.7-11.3-3.1
			c-3.9,1.4-6.5,5.2-6.5,9.4C-243,527.8-239.6,532-234.9,532.9z"/>
		<path class="st0" d="M147.3,479.3C128.5,413.3,68,367.6-1.2,367.6l-0.6,0c-9.6,0.1-18,5.9-24.1,10.9c-2.8,2.2-5.8,3.9-8.9,5.1
			v-0.1c0-1.8,0-3.6,0-5.5v-30.7c0-20.5,16.7-37.2,37.2-37.2c5.5,0,10-4.5,10-10c0-5.5-4.5-10-10-10c-21,0-39.3,11.3-49.3,28.2
			c-4.3-9.3-10-18-17.6-25.6c-38.9-38.8-109.6-28.6-112.6-28.2c-4.3,0.7-7.7,4.1-8.4,8.4c-0.4,3-10.5,72.3,27.2,111.4
			c-7.6,3.9-15,8.4-22,13.6c-26.2,19.4-45.3,45.9-55.2,76.7c-1.7,5.3,1.2,10.9,6.5,12.6c5.3,1.7,10.9-1.2,12.6-6.5
			c17.9-55.7,69.3-93.1,127.9-93.1l0.5,0c1.4,0,3.1,0.7,4.8,1.5c0.2,0.1,0.4,0.2,0.6,0.3c2.7,1.5,5.3,3.6,6.4,4.6
			c18.3,14.9,44.8,14.9,63.1,0c1.9-1.6,7.8-6.4,11.7-6.4l0.5,0c58.4,0,109.7,37.5,127.7,92.3C61.7,486.6,11,542,11,609.1
			c0,37.3,15.7,71,40.8,94.8C32.3,717.1,13.2,719-3.2,719l-1.1,0c-0.2,0-0.7,0-1.4,0c-16,0.6-28.5-2.2-36.2-4.7
			c-2-0.6-4.1-0.6-6.1,0c-7.7,2.5-20.2,5.3-36.2,4.7c-0.7,0-1.2,0-1.4,0l-1.1,0c-21.3,0-65.7,0-103.7-76.7
			c-11.8-23.8-21.4-50.9-27.1-76.4c-1.2-5.4-6.6-8.8-11.9-7.6c-5.4,1.2-8.8,6.6-7.6,11.9c6,27,16.2,55.8,28.7,80.9
			C-169.6,729-123,739-86.6,739h0.7c0.1,0,0.2,0,0.3,0l0.5,0l0.4,0c13.8,0.5,27.6-1.1,40-4.7c11,3.2,23,4.8,35.1,4.8
			c1.6,0,3.2,0,4.8-0.1l0.4,0l0.5,0c0.1,0,0.2,0,0.3,0h0.7c19.7,0,45.4-2.6,71.2-22.1c20.6,14,45.4,22.2,72,22.2
			c71.1,0,129-58.3,129-130C269,539.9,215,483.2,147.3,479.3L147.3,479.3z M-71.9,372.7l-47.5-55.2c-3.6-4.2-9.9-4.7-14.1-1.1
			c-4.2,3.6-4.7,9.9-1.1,14.1l32.3,37.6c-12.3,1.1-24.4,3.6-36,7.5c-1.8-1.4-3.5-3-5.1-4.6c-25.1-25-24.7-69.8-23.4-87.6
			c17.9-1.3,62.8-1.7,87.9,23.3c21.1,21,24.1,56,23.9,76.7c-3.2-1.1-6.2-2.8-8.9-5.1C-66.2,376.6-68.9,374.5-71.9,372.7L-71.9,372.7
			z M-85.1,739L-85.1,739C-85,739-85.1,739-85.1,739z M-4.8,739L-4.8,739C-4.7,739-4.8,739-4.8,739z M140,719
			c-60.1,0-109-49.3-109-110c0-60.6,48.9-110,109-110s109,49.3,109,110C249,669.7,200.1,719,140,719z"/>
		<path class="st0" d="M187.8,574.8h-13.7v-13.9c0-12.3-9.9-22.2-22.1-22.2h-24c-12.2,0-22.1,10-22.1,22.2v13.9H92.2
			c-12.2,0-22.1,10-22.1,22.2v24.2c0,12.3,9.9,22.2,22.1,22.2h13.7v13.9c0,12.3,9.9,22.2,22.1,22.2h24c12.2,0,22.1-10,22.1-22.2
			v-13.9h13.7c12.2,0,22.1-10,22.1-22.2V597C209.9,584.7,200,574.8,187.8,574.8z M189.9,621.2c0,1.2-1,2.2-2.1,2.2h-23.7
			c-5.5,0-10,4.5-10,10v23.9c0,1.2-1,2.2-2.1,2.2h-24c-1.2,0-2.1-1-2.1-2.2v-23.9c0-5.5-4.5-10-10-10H92.2c-1.2,0-2.1-1-2.1-2.2V597
			c0-1.2,1-2.2,2.1-2.2h23.7c5.5,0,10-4.5,10-10v-23.9c0-1.2,1-2.2,2.1-2.2h24c1.2,0,2.1,1,2.1,2.2v23.9c0,5.5,4.5,10,10,10h23.7
			c1.2,0,2.1,1,2.1,2.2V621.2z"/>
	</g>
</g>
</svg>
