<?xml version="1.0" encoding="utf-8"?>
<!-- Generator: Adobe Illustrator 19.0.0, SVG Export Plug-In . SVG Version: 6.00 Build 0)  -->
<svg version="1.1" id="Capa_1" xmlns="http://www.w3.org/2000/svg" xmlns:xlink="http://www.w3.org/1999/xlink" x="0px" y="0px"
	 viewBox="-49 141 512 512" style="enable-background:new -49 141 512 512;" xml:space="preserve">
<style type="text/css">
	.st0{fill:#34E83B;}
</style>
<g>
	<g>
		<path class="st0" d="M388,216c-48.4-48.4-112.6-75-181-75c-68.4,0-132.7,26.6-181,75c-48.4,48.4-75,112.6-75,181
			s26.6,132.7,75,181s112.6,75,181,75c68.4,0,132.7-26.6,181-75s75-112.6,75-181S436.4,264.3,388,216z M207,623
			C82.4,623-19,521.6-19,397S82.4,171,207,171s226,101.4,226,226S331.6,623,207,623z"/>
	</g>
</g>
<g>
	<g>
		<path class="st0" d="M329.3,314.9c-5.9-5.9-15.4-5.9-21.2,0L175.6,447.3l-69.7-69.7c-5.9-5.9-15.4-5.9-21.2,0s-5.9,15.4,0,21.2
			l80.3,80.3c2.9,2.9,6.8,4.4,10.6,4.4s7.7-1.5,10.6-4.4l143.1-143.1C335.2,330.2,335.2,320.7,329.3,314.9z"/>
	</g>
</g>
</svg>
