<?xml version="1.0" encoding="utf-8"?>
<!-- Generator: Adobe Illustrator 19.0.0, SVG Export Plug-In . SVG Version: 6.00 Build 0)  -->
<svg version="1.1" id="Layer_1" xmlns="http://www.w3.org/2000/svg" xmlns:xlink="http://www.w3.org/1999/xlink" x="0px" y="0px"
	 viewBox="-292 236 512 512" style="enable-background:new -292 236 512 512;" xml:space="preserve">
<g>
	<g>
		<path d="M-36,236c-141.5,0-256,114.5-256,256s114.5,256,256,256s256-114.5,256-256S105.5,236-36,236z M-36,713.9
			c-122.3,0-221.9-99.6-221.9-221.9S-158.3,270.1-36,270.1S185.9,369.7,185.9,492S86.3,713.9-36,713.9z"/>
	</g>
</g>
<g>
	<g>
		<path d="M16.8,486.9H-39v-95.1c0-9.4-7.6-17.1-17.1-17.1s-17.1,7.6-17.1,17.1V504c0,9.4,7.6,17.1,17.1,17.1h72.9
			c9.4,0,17.1-7.6,17.1-17.1S26.2,486.9,16.8,486.9z"/>
	</g>
</g>
</svg>
