<?xml version="1.0" encoding="utf-8"?>
<!-- Generator: Adobe Illustrator 19.0.0, SVG Export Plug-In . SVG Version: 6.00 Build 0)  -->
<svg version="1.1" id="Layer_1" xmlns="http://www.w3.org/2000/svg" xmlns:xlink="http://www.w3.org/1999/xlink" x="0px" y="0px"
	 viewBox="53 -52.7 365.7 365.7" style="enable-background:new 53 -52.7 365.7 365.7;" xml:space="preserve">
<style type="text/css">
	.st0{fill:#FFFFFF;}
</style>
<path class="st0" d="M296.2,130.2L409.3,17c12.5-12.5,12.5-32.8,0-45.2l-15.1-15.1c-12.5-12.5-32.8-12.5-45.3,0L235.9,69.8
	L122.7-43.3c-12.5-12.5-32.8-12.5-45.2,0L62.4-28.2C49.9-15.7,49.9,4.5,62.4,17l113.2,113.2L62.4,243.3c-12.5,12.5-12.5,32.8,0,45.3
	l15.1,15.1c12.5,12.5,32.8,12.5,45.2,0l113.1-113.1L349,303.6c12.5,12.5,32.8,12.5,45.3,0l15.1-15.1c12.5-12.5,12.5-32.8,0-45.3
	L296.2,130.2z"/>
</svg>
