<?xml version="1.0" encoding="utf-8"?>
<!-- Generator: Adobe Illustrator 19.0.0, SVG Export Plug-In . SVG Version: 6.00 Build 0)  -->
<svg version="1.1" id="Capa_1" xmlns="http://www.w3.org/2000/svg" xmlns:xlink="http://www.w3.org/1999/xlink" x="0px" y="0px"
	 viewBox="-331 219.2 335.2 264.4" style="enable-background:new -331 219.2 335.2 264.4;" xml:space="preserve">
<g>
	<g>
		<path d="M-3.4,245.6h-133.2c-3.2-14.8-16.8-26.4-32.4-26.4c-16,0-29.2,11.2-32.4,26.4h-122.4c-4,0-7.2,3.2-7.2,7.2
			s3.2,7.2,7.2,7.2h122c3.2,14.8,16.8,26.4,32.4,26.4c16,0,29.2-11.2,32.4-26.4H-3.4c4,0,7.2-3.2,7.2-7.2S0.6,245.6-3.4,245.6z
			 M-169,272.4c-10.4,0-19.2-8.4-19.2-19.2c0-10.8,8.4-19.2,19.2-19.2c10.4,0,19.2,8.4,19.2,19.2
			C-149.8,263.6-158.2,272.4-169,272.4z"/>
	</g>
</g>
<g>
	<g>
		<path d="M-3,344.4h-202c-3.2-14.8-16.8-26.4-32.4-26.4c-16,0-29.2,11.2-32.4,26.4h-54c-4,0-7.2,3.2-7.2,7.2s3.2,7.2,7.2,7.2h54
			c3.2,14.8,16.8,26.4,32.4,26.4c16,0,29.2-11.2,32.4-26.4H-3c4,0,7.2-3.2,7.2-7.2S1,344.4-3,344.4z M-237.4,370.8
			c-10.4,0-19.2-8.4-19.2-19.2c0-10.4,8.8-19.2,19.2-19.2c10.4,0,19.2,8.4,19.2,19.2C-218.2,362-226.6,370.8-237.4,370.8z"/>
	</g>
</g>
<g>
	<g>
		<path d="M-3.4,442.8h-62.8c-3.2-14.8-16.8-26.4-32.4-26.4c-16,0-29.2,11.2-32.4,26.4h-192.8c-4,0-7.2,3.2-7.2,7.2s3.2,7.2,7.2,7.2
			h192.4c3.2,14.8,16.8,26.4,32.4,26.4c16,0,29.2-11.2,32.4-26.4h63.2c4,0,7.2-3.2,7.2-7.2S0.6,442.8-3.4,442.8z M-99,469.6
			c-10.4,0-19.2-8.4-19.2-19.2s8.8-19.2,19.2-19.2s19.2,8.4,19.2,19.2S-88.2,469.6-99,469.6z"/>
	</g>
</g>
</svg>
