<?xml version="1.0" encoding="utf-8"?>
<!-- Generator: Adobe Illustrator 19.0.0, SVG Export Plug-In . SVG Version: 6.00 Build 0)  -->
<svg version="1.1" xmlns="http://www.w3.org/2000/svg" xmlns:xlink="http://www.w3.org/1999/xlink" x="0px" y="0px"
	 viewBox="0 0 500 500" style="enable-background:new 0 0 500 500;" xml:space="preserve">
<style type="text/css">
	.st0{fill:#F85838;}
	.st1{fill:#FFFFFF;}
</style>
<g id="Layer_2">
	<rect id="XMLID_1_" x="0" y="0" class="st0" width="500" height="500"/>
</g>
<g id="Layer_1">
	<g id="XMLID_3_">
		<g id="XMLID_2_">
			<path id="XMLID_213_" class="st1" d="M249.7,256.1c-0.3,1.5-0.5,3.1-1,4.3c-5.6,25-11.2,49.9-17.1,74.9
				c-2.8,12.5-6.4,25-9.7,37.4c-1.3,4.8-3.6,6.4-8.4,6.4c-20.1,0-40.5,0-60.6,0c-9.2,0-18.6-0.3-27.8,0c-4.6,0.3-7.6-1.8-9.7-5.3
				c-9.2-16-17.1-32.6-22.9-50.2c-10.7-32.3-14.5-65.7-12.7-99.8c1.3-24.2,5.3-47.9,11.7-71.3c8.1-29.8,19.4-58.3,33.9-85.8
				c4.3-8.1,9.2-16,13.8-23.9c2.3-3.6,5.3-4.8,9.4-4.8c31.3,0,62.6,0,94,0c36.2,0,72.6,0,108.7,0c4.6,0,7.6,1.5,9.9,5.3
				c13.2,21.4,24.4,44.1,33.4,67.5c5.1,13.2,9.4,26.7,13.5,40.5c6.9,24.2,10.9,48.9,12.2,73.8c1.3,28.3-1.3,56-8.1,83.3
				c-6.1,23.2-15.5,45.3-27.8,66c-2,3.6-4.8,4.8-8.9,4.8c-29.5,0-59.1,0-88.4,0c-5.9,0-7.9-1.3-9.2-7.1
				c-7.1-28.8-14.3-57.8-21.1-86.8c-2.3-9.7-4.1-19.4-6.1-29C250.2,256.1,249.9,256.1,249.7,256.1z M116,126
				c-0.5,0.5-0.8,0.8-0.8,0.8c-0.8,1.8-1.3,3.6-1.8,5.3c-9.2,26.7-15.5,54-17.8,82c-1.8,21.1-1.5,42.3,1.8,63.4
				c4.3,29.5,13.8,57,28.3,83.3c1.3,2.3,2.8,3.6,5.9,3.6c24.7-0.3,49.4,0,74.1,0c2.8,0,4.1-1,4.8-3.6c7.4-31.3,15.3-62.6,22.2-94
				c3.8-17.6,5.9-35.6,8.7-53.5c1-5.9-0.3-10.7-4.8-14.5c-2.3-1.8-4.1-4.1-6.4-6.1c-15.8-14.5-34.1-26-53-36.4
				c-13.2-7.4-26.7-14.3-40.2-21.1C130,131.8,122.9,129,116,126z M384.4,125.7c-1,0.5-2,0.8-3.1,1c-11.5,5.6-22.9,10.9-34.1,16.6
				c-19.9,10.2-39.5,20.9-57.8,33.9c-9.9,6.9-19.4,14.5-27.2,23.7c-2.3,2.5-3.6,5.1-3.1,8.4c1,8.4,1,17.1,2.5,25.2
				c4.3,22.9,8.9,45.8,14,68.5c4.3,19.6,9.7,39,14.5,58.6c0.5,2,1.3,2.8,3.6,2.8c25.5,0,50.9,0,76.1,0c2.3,0,3.3-0.8,4.1-2.5
				c3.6-7.1,7.4-14.3,10.7-21.4c13.5-30.6,20.1-62.9,20.6-96.3C406.3,203.4,398.4,164.2,384.4,125.7z M121.1,111.5
				c0.8,0.5,1,0.8,1.5,1c16.8,8.1,33.6,16,50.2,24.4c20.6,10.7,40.5,22.7,58.3,37.2c6.6,5.3,13,11.5,19.4,17.3
				c36.4-36.7,82.8-57.8,128.8-79.7c-0.3-0.5-0.3-1.3-0.5-1.8c-7.6-18.8-16.6-36.7-27-54.2c-1.5-2.5-3.3-3.1-6.1-3.1
				c-40.7,0-81.7,0-122.5,0c-22.9,0-45.6,0-68.5,0c-2.8,0-4.6,0.8-5.9,3.3c-6.4,12.2-13,24.2-19.1,36.4
				C126.2,98.7,123.9,105.1,121.1,111.5z"/>
			<path id="XMLID_150_" class="st1" d="M138.6,199.3c-0.5,15.8-1.3,31.3-1,47.1c0.5,26,4.1,51.7,14.8,75.9
				c2.8,6.4,6.6,12.5,10.2,18.6c2.8,4.6,2.5,8.9-1.3,11.2c-3.8,2.5-8.1,1.3-11.2-3.1c-12-17.6-18.6-36.9-22.7-57.5
				c-5.3-27-5.9-54.5-4.1-82c0.3-3.8,0.8-7.6,1.3-11.5c0.5-4.6,3.8-7.6,8.1-7.4s6.9,3.8,6.9,8.4
				C139.2,199.3,138.9,199.3,138.6,199.3z"/>
			<path id="XMLID_149_" class="st1" d="M378.5,236.8c-0.8,26.2-3.3,51.9-11.5,76.9c-4.1,12.7-9.7,25-17.3,36.2
				c-2.8,4.1-7.1,5.1-10.9,2.8c-3.6-2.3-4.3-6.9-1.5-10.9c13.8-20.4,19.9-43.3,22.9-67.2c2.3-17.3,2.8-34.6,2-51.9
				c-0.3-7.4-1-14.5-1.8-21.9c-0.3-3.6,0.5-6.4,3.6-8.1c2.8-1.8,5.9-1.3,8.1,0.8c1.5,1,2.8,3.1,2.8,4.8
				C376.5,210.5,377.5,223.8,378.5,236.8z"/>
		</g>
		<g id="XMLID_16_">
			<path id="XMLID_17_" class="st1" d="M77.4,444h-6.1v7.6h-8.1V444H43v-5.9l17.3-23.4h9.2l-16,22.2h9.9V430h8.1v6.9h6.1v7.1H77.4z"
				/>
			<path id="XMLID_19_" class="st1" d="M93.4,424.2c1.8-0.8,3.6-1,5.9-1v7.6c-1,0-1.5,0-1.8,0c-2.3,0-4.3,0.8-5.6,2s-2,3.3-2,5.9
				v13.5h-8.1v-28.5h7.9v3.8C90.6,425.7,91.9,424.7,93.4,424.2z"/>
			<path id="XMLID_21_" class="st1" d="M104.6,418.1c-1-0.8-1.5-2-1.5-3.3s0.5-2.3,1.5-3.3c1-0.8,2.3-1.3,3.8-1.3s2.8,0.5,3.8,1.3
				c1,0.8,1.5,1.8,1.5,3.1s-0.5,2.5-1.5,3.3c-1,1-2.3,1.3-3.8,1.3C106.9,419.3,105.6,419.1,104.6,418.1z M104.1,423.4h8.1v28.5h-8.1
				V423.4z"/>
			<path id="XMLID_24_" class="st1" d="M125.7,450.4c-2.3-1.3-4.3-3.1-5.6-5.1c-1.3-2.3-2-4.8-2-7.6c0-2.8,0.8-5.3,2-7.6
				c1.3-2.3,3.3-4.1,5.6-5.1c2.3-1,5.1-1.8,8.1-1.8s5.6,0.5,7.9,1.8c2.3,1.3,3.8,3.1,4.8,5.3l-6.4,3.3c-1.5-2.5-3.6-3.8-6.4-3.8
				c-2,0-3.8,0.8-5.3,2c-1.5,1.5-2,3.3-2,5.9s0.8,4.3,2,5.9c1.5,1.5,3.3,2,5.3,2c2.8,0,4.8-1.3,6.4-3.8l6.4,3.6
				c-1,2.3-2.5,4.1-4.8,5.3c-2.3,1.3-4.8,1.8-7.9,1.8C130.8,452.2,128,451.7,125.7,450.4z"/>
			<path id="XMLID_26_" class="st1" d="M178.7,440h-21.4c0.5,1.8,1.3,3.1,2.8,4.1c1.5,1,3.3,1.5,5.3,1.5c1.5,0,2.8-0.3,3.8-0.8
				c1-0.5,2.3-1,3.3-2l4.3,4.8c-2.8,3.1-6.6,4.6-11.7,4.6c-3.3,0-6.1-0.5-8.4-1.8c-2.5-1.3-4.3-3.1-5.6-5.1c-1.3-2.3-2-4.8-2-7.6
				c0-2.8,0.8-5.3,2-7.6c1.3-2.3,3.1-4.1,5.3-5.3c2.3-1.3,4.8-1.8,7.6-1.8c2.8,0,5.3,0.5,7.6,1.8s4.1,2.8,5.3,5.1
				c1.3,2.3,2,4.8,2,7.9C178.7,437.9,178.7,438.7,178.7,440z M159.3,430.8c-1.3,1-2,2.5-2.3,4.3h14c-0.3-1.8-1-3.3-2.3-4.3
				c-1.3-1-2.8-1.5-4.6-1.5C162.1,429.3,160.6,429.8,159.3,430.8z"/>
			<path id="XMLID_29_" class="st1" d="M208.2,424.9c2.3,1.3,3.8,2.8,5.1,5.1c1.3,2.3,1.8,4.8,1.8,7.6c0,2.8-0.5,5.6-1.8,7.6
				c-1.3,2.3-3.1,3.8-5.1,5.1c-2.3,1.3-4.6,1.8-7.1,1.8c-3.6,0-6.4-1-8.7-3.3v13.2h-8.1v-38.7h7.9v3.3c2-2.5,5.1-3.8,8.9-3.8
				C203.7,422.9,206.2,423.7,208.2,424.9z M204.9,443.3c1.3-1.5,2-3.3,2-5.9s-0.8-4.3-2-5.9c-1.3-1.5-3.1-2-5.1-2s-3.8,0.8-5.1,2
				c-1.3,1.5-2,3.3-2,5.9s0.8,4.3,2,5.9c1.3,1.5,3.1,2,5.1,2C201.9,445.6,203.4,444.8,204.9,443.3z"/>
			<path id="XMLID_32_" class="st1" d="M223.3,451.4c-2.3-0.5-4.1-1.3-5.3-2.3l2.8-5.9c1.3,0.8,2.8,1.5,4.6,2
				c1.8,0.5,3.6,0.8,5.3,0.8c3.6,0,5.3-0.8,5.3-2.5c0-0.8-0.5-1.3-1.5-1.8c-1-0.3-2.3-0.8-4.3-1c-2.3-0.3-4.3-0.8-5.9-1.3
				s-2.8-1.3-3.8-2.5c-1-1.3-1.8-2.8-1.8-5.1c0-1.8,0.5-3.3,1.5-4.8c1-1.3,2.5-2.5,4.6-3.3c2-0.8,4.3-1.3,7.1-1.3
				c2,0,4.1,0.3,6.1,0.8c2,0.5,3.6,1,4.8,1.8l-2.8,5.9c-2.5-1.5-5.3-2-8.1-2c-1.8,0-3.1,0.3-4.1,0.8c-1,0.5-1.3,1-1.3,1.8
				c0,0.8,0.5,1.5,1.5,1.8c1,0.3,2.5,0.8,4.6,1c2.3,0.5,4.3,0.8,5.6,1.3c1.5,0.5,2.8,1.3,3.8,2.3c1,1.3,1.5,2.8,1.5,4.8
				c0,1.8-0.5,3.3-1.5,4.6c-1,1.3-2.5,2.5-4.6,3.3c-2,0.8-4.3,1-7.1,1C227.8,452.2,225.6,451.9,223.3,451.4z"/>
			<path id="XMLID_34_" class="st1" d="M272.9,421.6v9.7H290v6.9h-17.1v13.5h-8.7v-36.9h28v6.9H272.9z"/>
			<path id="XMLID_36_" class="st1" d="M297.4,418.1c-1-0.8-1.5-2-1.5-3.3s0.5-2.3,1.5-3.3c1-0.8,2.3-1.3,3.8-1.3
				c1.5,0,2.8,0.5,3.8,1.3c1,0.8,1.5,1.8,1.5,3.1s-0.5,2.5-1.5,3.3c-1,1-2.3,1.3-3.8,1.3C299.7,419.1,298.4,419.1,297.4,418.1z
				 M296.9,423.4h8.1v28.5h-8.1V423.4z"/>
			<path id="XMLID_39_" class="st1" d="M331.2,450.4c-0.8,0.5-1.8,1-3.1,1.3c-1.3,0.3-2.5,0.5-3.8,0.5c-3.3,0-6.1-0.8-7.9-2.5
				c-1.8-1.8-2.8-4.3-2.8-7.6v-11.7h-4.3v-6.4h4.3V417h8.1v6.9h7.1v6.4h-7.1v11.5c0,1.3,0.3,2,1,2.8c0.5,0.8,1.5,1,2.5,1
				c1.3,0,2.3-0.3,3.3-1L331.2,450.4z"/>
			<path id="XMLID_41_" class="st1" d="M361.5,426.2c2.3,2,3.3,5.3,3.3,9.4v16.3h-8.1v-15c0-2.3-0.5-3.8-1.5-5.1
				c-1-1-2.3-1.8-4.3-1.8s-3.8,0.8-4.8,2c-1.3,1.3-1.8,3.3-1.8,5.9v14h-8.1v-28.5h7.9v3.3c1-1.3,2.5-2,4.1-2.8c1.5-0.8,3.3-1,5.3-1
				C356.7,422.9,359.5,424.2,361.5,426.2z"/>
			<path id="XMLID_43_" class="st1" d="M400.2,440h-21.4c0.5,1.8,1.3,3.1,2.8,4.1c1.5,1,3.3,1.5,5.3,1.5c1.5,0,2.8-0.3,3.8-0.8
				c1-0.5,2.3-1,3.3-2l4.3,4.8c-2.8,3.1-6.6,4.6-11.7,4.6c-3.3,0-6.1-0.5-8.4-1.8c-2.3-1.3-4.3-3.1-5.6-5.1c-1.3-2.3-2-4.8-2-7.6
				c0-2.8,0.8-5.3,2-7.6c1.3-2.3,3.1-4.1,5.3-5.3c2.3-1.3,4.8-1.8,7.6-1.8s5.3,0.5,7.6,1.8c2.3,1.3,4.1,2.8,5.3,5.1
				c1.3,2.3,2,4.8,2,7.9C400.5,437.9,400.5,438.7,400.2,440z M381.1,430.8c-1.3,1-2,2.5-2.3,4.3h14c-0.3-1.8-1-3.3-2.3-4.3
				c-1.3-1-2.8-1.5-4.6-1.5C383.9,429.3,382.4,429.8,381.1,430.8z"/>
			<path id="XMLID_46_" class="st1" d="M408.6,451.4c-2.3-0.5-4.1-1.3-5.3-2.3l2.8-5.9c1.3,0.8,2.8,1.5,4.6,2
				c1.8,0.5,3.6,0.8,5.3,0.8c3.6,0,5.3-0.8,5.3-2.5c0-0.8-0.5-1.3-1.5-1.8c-1-0.3-2.3-0.8-4.3-1c-2.3-0.3-4.3-0.8-5.9-1.3
				c-1.5-0.5-2.8-1.3-3.8-2.5c-1-1.3-1.8-2.8-1.8-5.1c0-1.8,0.5-3.3,1.5-4.8c1-1.3,2.5-2.5,4.6-3.3c2-0.8,4.3-1.3,7.1-1.3
				c2,0,4.1,0.3,6.1,0.8c2,0.5,3.6,1,4.8,1.8l-2.8,5.9c-2.5-1.5-5.3-2-8.1-2c-1.8,0-3.1,0.3-4.1,0.8c-1,0.5-1.3,1-1.3,1.8
				c0,0.8,0.5,1.5,1.5,1.8c1,0.3,2.5,0.8,4.6,1c2.3,0.5,4.3,0.8,5.6,1.3c1.5,0.5,2.8,1.3,3.8,2.3c1,1.3,1.5,2.8,1.5,4.8
				c0,1.8-0.5,3.3-1.5,4.6c-1,1.3-2.5,2.5-4.6,3.3c-2,0.8-4.3,1-7.1,1C413.2,452.2,410.9,451.9,408.6,451.4z"/>
			<path id="XMLID_48_" class="st1" d="M436.7,451.4c-2.3-0.5-4.1-1.3-5.3-2.3l2.8-5.9c1.3,0.8,2.8,1.5,4.6,2s3.6,0.8,5.3,0.8
				c3.6,0,5.3-0.8,5.3-2.5c0-0.8-0.5-1.3-1.5-1.8c-1-0.3-2.3-0.8-4.3-1c-2.3-0.3-4.3-0.8-5.9-1.3c-1.5-0.5-2.8-1.3-3.8-2.5
				c-1-1.3-1.8-2.8-1.8-5.1c0-1.8,0.5-3.3,1.5-4.8c1-1.3,2.5-2.5,4.6-3.3c2-0.8,4.3-1.3,7.1-1.3c2,0,4.1,0.3,6.1,0.8
				c2,0.5,3.6,1,4.8,1.8l-2.8,5.9c-2.5-1.5-5.3-2-8.1-2c-1.8,0-3.1,0.3-4.1,0.8c-1,0.5-1.3,1-1.3,1.8c0,0.8,0.5,1.5,1.5,1.8
				c1,0.3,2.5,0.8,4.6,1c2.3,0.5,4.3,0.8,5.6,1.3c1.5,0.5,2.8,1.3,3.8,2.3c1,1.3,1.5,2.8,1.5,4.8c0,1.8-0.5,3.3-1.5,4.6
				c-1,1.3-2.5,2.5-4.6,3.3c-2,0.8-4.3,1-7.1,1C441.2,452.2,438.9,451.9,436.7,451.4z"/>
		</g>
	</g>
</g>
</svg>
