<?xml version="1.0" encoding="utf-8"?>
<!-- Generator: Adobe Illustrator 19.0.0, SVG Export Plug-In . SVG Version: 6.00 Build 0)  -->
<svg version="1.1" id="Layer_1" xmlns="http://www.w3.org/2000/svg" xmlns:xlink="http://www.w3.org/1999/xlink" x="0px" y="0px"
	 viewBox="0 0 163.7 168.1" style="enable-background:new 0 0 163.7 168.1;" xml:space="preserve">
<g id="XMLID_2_">
	<path id="XMLID_213_" d="M81.7,85.7c-0.1,0.6-0.2,1.2-0.4,1.7c-2.2,9.8-4.4,19.6-6.7,29.4c-1.1,4.9-2.5,9.8-3.8,14.7
		c-0.5,1.9-1.4,2.5-3.3,2.5c-7.9,0-15.9,0-23.8,0c-3.6,0-7.3-0.1-10.9,0c-1.8,0.1-3-0.7-3.8-2.1c-3.6-6.3-6.7-12.8-9-19.7
		c-4.2-12.7-5.7-25.8-5-39.2c0.5-9.5,2.1-18.8,4.6-28c3.2-11.7,7.6-22.9,13.3-33.7c1.7-3.2,3.6-6.3,5.4-9.4C39.2,0.5,40.4,0,42,0
		c12.3,0,24.6,0,36.9,0c14.2,0,28.5,0,42.7,0c1.8,0,3,0.6,3.9,2.1c5.2,8.4,9.6,17.3,13.1,26.5c2,5.2,3.7,10.5,5.3,15.9
		c2.7,9.5,4.3,19.2,4.8,29c0.5,11.1-0.5,22-3.2,32.7c-2.4,9.1-6.1,17.8-10.9,25.9c-0.8,1.4-1.9,1.9-3.5,1.9c-11.6,0-23.2,0-34.7,0
		c-2.3,0-3.1-0.5-3.6-2.8c-2.8-11.3-5.6-22.7-8.3-34.1c-0.9-3.8-1.6-7.6-2.4-11.4C81.9,85.7,81.8,85.7,81.7,85.7z M29.2,34.6
		c-0.2,0.2-0.3,0.3-0.3,0.3c-0.3,0.7-0.5,1.4-0.7,2.1c-3.6,10.5-6.1,21.2-7,32.2c-0.7,8.3-0.6,16.6,0.7,24.9
		c1.7,11.6,5.4,22.4,11.1,32.7c0.5,0.9,1.1,1.4,2.3,1.4c9.7-0.1,19.4,0,29.1,0c1.1,0,1.6-0.4,1.9-1.4c2.9-12.3,6-24.6,8.7-36.9
		c1.5-6.9,2.3-14,3.4-21c0.4-2.3-0.1-4.2-1.9-5.7c-0.9-0.7-1.6-1.6-2.5-2.4c-6.2-5.7-13.4-10.2-20.8-14.3
		c-5.2-2.9-10.5-5.6-15.8-8.3C34.7,36.9,31.9,35.8,29.2,34.6z M134.6,34.5c-0.4,0.2-0.8,0.3-1.2,0.4c-4.5,2.2-9,4.3-13.4,6.5
		c-7.8,4-15.5,8.2-22.7,13.3c-3.9,2.7-7.6,5.7-10.7,9.3c-0.9,1-1.4,2-1.2,3.3c0.4,3.3,0.4,6.7,1,9.9c1.7,9,3.5,18,5.5,26.9
		c1.7,7.7,3.8,15.3,5.7,23c0.2,0.8,0.5,1.1,1.4,1.1c10,0,20,0,29.9,0c0.9,0,1.3-0.3,1.6-1c1.4-2.8,2.9-5.6,4.2-8.4
		c5.3-12,7.9-24.7,8.1-37.8C143.2,65,140.1,49.6,134.6,34.5z M31.2,28.9c0.3,0.2,0.4,0.3,0.6,0.4c6.6,3.2,13.2,6.3,19.7,9.6
		c8.1,4.2,15.9,8.9,22.9,14.6c2.6,2.1,5.1,4.5,7.6,6.8c14.3-14.4,32.5-22.7,50.6-31.3c-0.1-0.2-0.1-0.5-0.2-0.7
		c-3-7.4-6.5-14.4-10.6-21.3c-0.6-1-1.3-1.2-2.4-1.2c-16,0-32.1,0-48.1,0c-9,0-17.9,0-26.9,0c-1.1,0-1.8,0.3-2.3,1.3
		c-2.5,4.8-5.1,9.5-7.5,14.3C33.2,23.9,32.3,26.4,31.2,28.9z"/>
	<path id="XMLID_150_" d="M38.1,63.4c-0.2,6.2-0.5,12.3-0.4,18.5c0.2,10.2,1.6,20.3,5.8,29.8c1.1,2.5,2.6,4.9,4,7.3
		c1.1,1.8,1,3.5-0.5,4.4c-1.5,1-3.2,0.5-4.4-1.2c-4.7-6.9-7.3-14.5-8.9-22.6c-2.1-10.6-2.3-21.4-1.6-32.2c0.1-1.5,0.3-3,0.5-4.5
		c0.2-1.8,1.5-3,3.2-2.9c1.7,0.1,2.7,1.5,2.7,3.3C38.3,63.4,38.2,63.4,38.1,63.4z"/>
	<path id="XMLID_149_" d="M132.3,78.1c-0.3,10.3-1.3,20.4-4.5,30.2c-1.6,5-3.8,9.8-6.8,14.2c-1.1,1.6-2.8,2-4.3,1.1
		c-1.4-0.9-1.7-2.7-0.6-4.3c5.4-8,7.8-17,9-26.4c0.9-6.8,1.1-13.6,0.8-20.4c-0.1-2.9-0.4-5.7-0.7-8.6c-0.1-1.4,0.2-2.5,1.4-3.2
		c1.1-0.7,2.3-0.5,3.2,0.3c0.6,0.4,1.1,1.2,1.1,1.9C131.5,67.8,131.9,73,132.3,78.1z"/>
</g>
<g id="XMLID_16_">
	<path id="XMLID_17_" d="M14.1,159.5h-2.4v3H8.5v-3H0.6v-2.3l6.8-9.2H11l-6.3,8.7h3.9v-2.7h3.2v2.7h2.4V159.5z"/>
	<path id="XMLID_19_" d="M20.4,151.7c0.7-0.3,1.4-0.4,2.3-0.4v3c-0.4,0-0.6,0-0.7,0c-0.9,0-1.7,0.3-2.2,0.8
		c-0.5,0.5-0.8,1.3-0.8,2.3v5.3h-3.2v-11.2h3.1v1.5C19.3,152.3,19.8,151.9,20.4,151.7z"/>
	<path id="XMLID_21_" d="M24.8,149.3c-0.4-0.3-0.6-0.8-0.6-1.3s0.2-0.9,0.6-1.3c0.4-0.3,0.9-0.5,1.5-0.5c0.6,0,1.1,0.2,1.5,0.5
		c0.4,0.3,0.6,0.7,0.6,1.2c0,0.5-0.2,1-0.6,1.3c-0.4,0.4-0.9,0.5-1.5,0.5C25.7,149.8,25.2,149.7,24.8,149.3z M24.6,151.4h3.2v11.2
		h-3.2V151.4z"/>
	<path id="XMLID_24_" d="M33.1,162c-0.9-0.5-1.7-1.2-2.2-2c-0.5-0.9-0.8-1.9-0.8-3s0.3-2.1,0.8-3c0.5-0.9,1.3-1.6,2.2-2
		s2-0.7,3.2-0.7c1.2,0,2.2,0.2,3.1,0.7c0.9,0.5,1.5,1.2,1.9,2.1l-2.5,1.3c-0.6-1-1.4-1.5-2.5-1.5c-0.8,0-1.5,0.3-2.1,0.8
		c-0.6,0.6-0.8,1.3-0.8,2.3s0.3,1.7,0.8,2.3c0.6,0.6,1.3,0.8,2.1,0.8c1.1,0,1.9-0.5,2.5-1.5l2.5,1.4c-0.4,0.9-1,1.6-1.9,2.1
		c-0.9,0.5-1.9,0.7-3.1,0.7C35.1,162.7,34,162.5,33.1,162z"/>
	<path id="XMLID_26_" d="M53.9,157.9h-8.4c0.2,0.7,0.5,1.2,1.1,1.6c0.6,0.4,1.3,0.6,2.1,0.6c0.6,0,1.1-0.1,1.5-0.3
		c0.4-0.2,0.9-0.4,1.3-0.8l1.7,1.9c-1.1,1.2-2.6,1.8-4.6,1.8c-1.3,0-2.4-0.2-3.3-0.7c-1-0.5-1.7-1.2-2.2-2c-0.5-0.9-0.8-1.9-0.8-3
		c0-1.1,0.3-2.1,0.8-3s1.2-1.6,2.1-2.1s1.9-0.7,3-0.7c1.1,0,2.1,0.2,3,0.7c0.9,0.5,1.6,1.1,2.1,2c0.5,0.9,0.8,1.9,0.8,3.1
		C53.9,157.1,53.9,157.4,53.9,157.9z M46.3,154.3c-0.5,0.4-0.8,1-0.9,1.7h5.5c-0.1-0.7-0.4-1.3-0.9-1.7c-0.5-0.4-1.1-0.6-1.8-0.6
		C47.4,153.7,46.8,153.9,46.3,154.3z"/>
	<path id="XMLID_29_" d="M65.5,152c0.9,0.5,1.5,1.1,2,2c0.5,0.9,0.7,1.9,0.7,3c0,1.1-0.2,2.2-0.7,3c-0.5,0.9-1.2,1.5-2,2
		c-0.9,0.5-1.8,0.7-2.8,0.7c-1.4,0-2.5-0.4-3.4-1.3v5.2h-3.2v-15.2h3.1v1.3c0.8-1,2-1.5,3.5-1.5C63.7,151.2,64.7,151.5,65.5,152z
		 M64.2,159.2c0.5-0.6,0.8-1.3,0.8-2.3s-0.3-1.7-0.8-2.3c-0.5-0.6-1.2-0.8-2-0.8c-0.8,0-1.5,0.3-2,0.8c-0.5,0.6-0.8,1.3-0.8,2.3
		s0.3,1.7,0.8,2.3c0.5,0.6,1.2,0.8,2,0.8C63,160.1,63.6,159.8,64.2,159.2z"/>
	<path id="XMLID_32_" d="M71.4,162.4c-0.9-0.2-1.6-0.5-2.1-0.9l1.1-2.3c0.5,0.3,1.1,0.6,1.8,0.8c0.7,0.2,1.4,0.3,2.1,0.3
		c1.4,0,2.1-0.3,2.1-1c0-0.3-0.2-0.5-0.6-0.7c-0.4-0.1-0.9-0.3-1.7-0.4c-0.9-0.1-1.7-0.3-2.3-0.5s-1.1-0.5-1.5-1
		c-0.4-0.5-0.7-1.1-0.7-2c0-0.7,0.2-1.3,0.6-1.9c0.4-0.5,1-1,1.8-1.3c0.8-0.3,1.7-0.5,2.8-0.5c0.8,0,1.6,0.1,2.4,0.3
		c0.8,0.2,1.4,0.4,1.9,0.7l-1.1,2.3c-1-0.6-2.1-0.8-3.2-0.8c-0.7,0-1.2,0.1-1.6,0.3s-0.5,0.4-0.5,0.7c0,0.3,0.2,0.6,0.6,0.7
		c0.4,0.1,1,0.3,1.8,0.4c0.9,0.2,1.7,0.3,2.2,0.5c0.6,0.2,1.1,0.5,1.5,0.9c0.4,0.5,0.6,1.1,0.6,1.9c0,0.7-0.2,1.3-0.6,1.8
		c-0.4,0.5-1,1-1.8,1.3c-0.8,0.3-1.7,0.4-2.8,0.4C73.2,162.7,72.3,162.6,71.4,162.4z"/>
	<path id="XMLID_34_" d="M90.9,150.7v3.8h6.7v2.7h-6.7v5.3h-3.4V148h11v2.7H90.9z"/>
	<path id="XMLID_36_" d="M100.5,149.3c-0.4-0.3-0.6-0.8-0.6-1.3s0.2-0.9,0.6-1.3c0.4-0.3,0.9-0.5,1.5-0.5s1.1,0.2,1.5,0.5
		c0.4,0.3,0.6,0.7,0.6,1.2c0,0.5-0.2,1-0.6,1.3c-0.4,0.4-0.9,0.5-1.5,0.5S100.9,149.7,100.5,149.3z M100.3,151.4h3.2v11.2h-3.2
		V151.4z"/>
	<path id="XMLID_39_" d="M113.8,162c-0.3,0.2-0.7,0.4-1.2,0.5c-0.5,0.1-1,0.2-1.5,0.2c-1.3,0-2.4-0.3-3.1-1c-0.7-0.7-1.1-1.7-1.1-3
		v-4.6h-1.7v-2.5h1.7v-2.7h3.2v2.7h2.8v2.5h-2.8v4.5c0,0.5,0.1,0.8,0.4,1.1c0.2,0.3,0.6,0.4,1,0.4c0.5,0,0.9-0.1,1.3-0.4L113.8,162z
		"/>
	<path id="XMLID_41_" d="M125.7,152.5c0.9,0.8,1.3,2.1,1.3,3.7v6.4h-3.2v-5.9c0-0.9-0.2-1.5-0.6-2c-0.4-0.4-0.9-0.7-1.7-0.7
		c-0.8,0-1.5,0.3-1.9,0.8c-0.5,0.5-0.7,1.3-0.7,2.3v5.5h-3.2v-11.2h3.1v1.3c0.4-0.5,1-0.8,1.6-1.1s1.3-0.4,2.1-0.4
		C123.8,151.2,124.9,151.7,125.7,152.5z"/>
	<path id="XMLID_43_" d="M140.9,157.9h-8.4c0.2,0.7,0.5,1.2,1.1,1.6s1.3,0.6,2.1,0.6c0.6,0,1.1-0.1,1.5-0.3c0.4-0.2,0.9-0.4,1.3-0.8
		l1.7,1.9c-1.1,1.2-2.6,1.8-4.6,1.8c-1.3,0-2.4-0.2-3.3-0.7s-1.7-1.2-2.2-2c-0.5-0.9-0.8-1.9-0.8-3c0-1.1,0.3-2.1,0.8-3
		s1.2-1.6,2.1-2.1c0.9-0.5,1.9-0.7,3-0.7c1.1,0,2.1,0.2,3,0.7c0.9,0.5,1.6,1.1,2.1,2c0.5,0.9,0.8,1.9,0.8,3.1
		C141,157.1,141,157.4,140.9,157.9z M133.4,154.3c-0.5,0.4-0.8,1-0.9,1.7h5.5c-0.1-0.7-0.4-1.3-0.9-1.7s-1.1-0.6-1.8-0.6
		C134.5,153.7,133.9,153.9,133.4,154.3z"/>
	<path id="XMLID_46_" d="M144.2,162.4c-0.9-0.2-1.6-0.5-2.1-0.9l1.1-2.3c0.5,0.3,1.1,0.6,1.8,0.8c0.7,0.2,1.4,0.3,2.1,0.3
		c1.4,0,2.1-0.3,2.1-1c0-0.3-0.2-0.5-0.6-0.7c-0.4-0.1-0.9-0.3-1.7-0.4c-0.9-0.1-1.7-0.3-2.3-0.5c-0.6-0.2-1.1-0.5-1.5-1
		c-0.4-0.5-0.7-1.1-0.7-2c0-0.7,0.2-1.3,0.6-1.9c0.4-0.5,1-1,1.8-1.3c0.8-0.3,1.7-0.5,2.8-0.5c0.8,0,1.6,0.1,2.4,0.3
		c0.8,0.2,1.4,0.4,1.9,0.7l-1.1,2.3c-1-0.6-2.1-0.8-3.2-0.8c-0.7,0-1.2,0.1-1.6,0.3s-0.5,0.4-0.5,0.7c0,0.3,0.2,0.6,0.6,0.7
		c0.4,0.1,1,0.3,1.8,0.4c0.9,0.2,1.7,0.3,2.2,0.5c0.6,0.2,1.1,0.5,1.5,0.9c0.4,0.5,0.6,1.1,0.6,1.9c0,0.7-0.2,1.3-0.6,1.8
		c-0.4,0.5-1,1-1.8,1.3c-0.8,0.3-1.7,0.4-2.8,0.4C146,162.7,145.1,162.6,144.2,162.4z"/>
	<path id="XMLID_48_" d="M155.2,162.4c-0.9-0.2-1.6-0.5-2.1-0.9l1.1-2.3c0.5,0.3,1.1,0.6,1.8,0.8c0.7,0.2,1.4,0.3,2.1,0.3
		c1.4,0,2.1-0.3,2.1-1c0-0.3-0.2-0.5-0.6-0.7c-0.4-0.1-0.9-0.3-1.7-0.4c-0.9-0.1-1.7-0.3-2.3-0.5c-0.6-0.2-1.1-0.5-1.5-1
		c-0.4-0.5-0.7-1.1-0.7-2c0-0.7,0.2-1.3,0.6-1.9c0.4-0.5,1-1,1.8-1.3c0.8-0.3,1.7-0.5,2.8-0.5c0.8,0,1.6,0.1,2.4,0.3
		c0.8,0.2,1.4,0.4,1.9,0.7l-1.1,2.3c-1-0.6-2.1-0.8-3.2-0.8c-0.7,0-1.2,0.1-1.6,0.3s-0.5,0.4-0.5,0.7c0,0.3,0.2,0.6,0.6,0.7
		c0.4,0.1,1,0.3,1.8,0.4c0.9,0.2,1.7,0.3,2.2,0.5c0.6,0.2,1.1,0.5,1.5,0.9c0.4,0.5,0.6,1.1,0.6,1.9c0,0.7-0.2,1.3-0.6,1.8
		c-0.4,0.5-1,1-1.8,1.3c-0.8,0.3-1.7,0.4-2.8,0.4C157,162.7,156.1,162.6,155.2,162.4z"/>
</g>
</svg>
