<?xml version="1.0" encoding="utf-8"?>
<!-- Generator: Adobe Illustrator 19.0.0, SVG Export Plug-In . SVG Version: 6.00 Build 0)  -->
<svg version="1.1" id="Layer_1" xmlns="http://www.w3.org/2000/svg" xmlns:xlink="http://www.w3.org/1999/xlink" x="0px" y="0px"
	 viewBox="-179 95 384 512" style="enable-background:new -179 95 384 512;" xml:space="preserve">
<style type="text/css">
	.st0{fill:#FFFFFF;}
</style>
<g>
	<g>
		<g>
			<path class="st0" d="M201.9,204.8L95.2,98.1c-2-2-4.7-3.1-7.5-3.1h-224c-23.5,0-42.7,19.1-42.7,42.7v426.7
				c0,23.5,19.1,42.7,42.7,42.7h298.7c23.5,0,42.7-19.1,42.7-42.7v-352C205,209.5,203.9,206.8,201.9,204.8z M98.3,131.4l70.3,70.3
				h-48.9c-11.8,0-21.3-9.6-21.3-21.3V131.4z M183.7,564.3c0,11.8-9.6,21.3-21.3,21.3h-298.7c-11.8,0-21.3-9.6-21.3-21.3V137.7
				c0-11.8,9.6-21.3,21.3-21.3H77v64c0,23.5,19.1,42.7,42.7,42.7h64V564.3z"/>
			<path class="st0" d="M67.4,408.1c-9.9-7.8-19.3-15.8-25.5-22c-8.1-8.1-15.4-16-21.7-23.5c9.8-30.3,14.1-46,14.1-54.3
				c0-35.4-12.8-42.7-32-42.7c-14.6,0-32,7.6-32,43.7c0,15.9,8.7,35.2,26,57.7c-4.2,12.9-9.2,27.8-14.8,44.6
				c-2.7,8.1-5.6,15.5-8.7,22.4c-2.5,1.1-4.9,2.3-7.3,3.4c-8.5,4.2-16.5,8.1-24,11.6c-34.1,16.1-56.6,26.8-56.6,47.9
				c0,15.3,16.6,24.8,32,24.8c19.8,0,49.8-26.5,71.7-71.1c22.7-9,50.9-15.6,73.2-19.8c17.9,13.7,37.6,26.9,47.1,26.9
				c26.4,0,32-15.3,32-28.1c0-25.2-28.8-25.2-42.7-25.2C94,404.3,82.5,405.6,67.4,408.1z M-83,500.3c-6.1,0-10.2-2.9-10.7-3.4
				c0-7.6,22.6-18.3,44.4-28.6c1.4-0.7,2.8-1.3,4.2-2C-61.1,489.6-76.9,500.3-83,500.3z M-8.3,309.4C-8.3,287-1.4,287,2.3,287
				c7.5,0,10.7,0,10.7,21.3c0,4.5-3,15.8-8.5,33.3C-3.9,328.8-8.3,317.7-8.3,309.4z M-0.2,424c0.7-1.9,1.3-3.7,1.9-5.6
				c4-11.9,7.5-22.5,10.7-32.1c4.4,4.9,9.2,9.9,14.3,15c2,2,7,6.5,13.6,12.1C27.2,416.2,13.2,419.8-0.2,424z M119.7,429.6
				c0,4.8,0,6.8-9.9,6.8c-2.9-0.6-9.6-4.6-17.9-10.2c3-0.3,5.2-0.5,6.5-0.5C114.1,425.7,118.6,427.2,119.7,429.6z"/>
		</g>
	</g>
</g>
</svg>
