<?xml version="1.0" encoding="utf-8"?>
<!-- Generator: Adobe Illustrator 19.0.0, SVG Export Plug-In . SVG Version: 6.00 Build 0)  -->
<svg version="1.1" id="Capa_1" xmlns="http://www.w3.org/2000/svg" xmlns:xlink="http://www.w3.org/1999/xlink" x="0px" y="0px"
	 viewBox="-49 141 512 512" style="enable-background:new -49 141 512 512;" xml:space="preserve">
<style type="text/css">
	.st0{fill:#FFFFFF;}
</style>
<g>
	<g>
		<path class="st0" d="M458.6,145.4c-4.2-4.2-10.6-5.5-16.2-3.3l-482,192.8c-5.5,2.2-9.2,7.5-9.4,13.4c-0.2,5.9,3.1,11.4,8.4,14
			l190.1,92.2l92.2,190.1c2.5,5.2,7.8,8.5,13.5,8.5c0.2,0,0.4,0,0.5,0c5.9-0.2,11.2-3.9,13.4-9.4l192.8-482
			C464.2,156,462.9,149.6,458.6,145.4z M3.1,350.1l382.6-153l-228,228L3.1,350.1z M253.9,600.9l-75-154.6l228-228L253.9,600.9z"/>
	</g>
</g>
</svg>
