<?xml version="1.0" encoding="utf-8"?>
<!-- Generator: Adobe Illustrator 19.0.0, SVG Export Plug-In . SVG Version: 6.00 Build 0)  -->
<svg version="1.1" id="Layer_1" xmlns="http://www.w3.org/2000/svg" xmlns:xlink="http://www.w3.org/1999/xlink" x="0px" y="0px"
	 viewBox="-244 96 511 489.7" style="enable-background:new -244 96 511 489.7;" xml:space="preserve">
<style type="text/css">
	.st0{fill:#FFC107;}
</style>
<path class="st0" d="M265.7,281c-3.3-10.3-12.5-17.7-23.4-18.7L94.8,249L36.5,112.4c-4.3-10-14.1-16.5-25-16.5s-20.7,6.5-25,16.5
	L-71.8,249l-147.5,13.4c-10.8,1-20,8.3-23.4,18.7c-3.4,10.3-0.3,21.7,7.9,28.9l111.5,97.8l-32.9,144.8c-2.4,10.6,1.7,21.7,10.6,28
	c4.7,3.4,10.3,5.2,15.9,5.2c4.8,0,9.6-1.3,13.9-3.9l127.2-76l127.2,76c9.3,5.6,21,5.1,29.9-1.3c8.8-6.4,13-17.4,10.6-28l-32.9-144.8
	l111.5-97.8C265.9,302.7,269,291.4,265.7,281z"/>
</svg>
