<?xml version="1.0" encoding="utf-8"?>
<!-- Generator: Adobe Illustrator 19.0.0, SVG Export Plug-In . SVG Version: 6.00 Build 0)  -->
<svg version="1.1" id="Layer_1" xmlns="http://www.w3.org/2000/svg" xmlns:xlink="http://www.w3.org/1999/xlink" x="0px" y="0px"
	 viewBox="-244 96 511 489.7" style="enable-background:new -244 96 511 489.7;" xml:space="preserve">
<style type="text/css">
	.st0{fill:#FFC107;}
</style>
<path class="st0" d="M-129.6,585.7c-5.6,0-11.2-1.7-15.9-5.2c-8.8-6.4-13-17.4-10.6-28l32.9-144.8l-111.5-97.8
	c-8.2-7.2-11.3-18.5-8-28.9c3.4-10.3,12.5-17.7,23.4-18.7L-71.8,249l58.3-136.5c4.3-10,14.1-16.5,25-16.5s20.7,6.5,25,16.5L94.8,249
	l147.5,13.4c10.9,1,20,8.3,23.4,18.7c3.4,10.3,0.3,21.7-7.9,28.9l-111.5,97.8l32.9,144.8c2.4,10.6-1.7,21.7-10.6,28
	c-8.8,6.4-20.6,6.9-29.9,1.3l-127.2-76l-127.2,76.1C-120,584.4-124.8,585.7-129.6,585.7z M11.5,473c4.8,0,9.6,1.3,13.9,3.9l120,71.8
	l-31-136.7c-2.2-9.7,1.1-19.9,8.6-26.5l105.3-92.3L89,280.5c-10-0.9-18.7-7.2-22.6-16.5l-55-128.8l-55,128.8
	c-3.9,9.2-12.5,15.5-22.5,16.4l-139.3,12.6l105.3,92.3c7.5,6.6,10.8,16.7,8.6,26.5l-31,136.7l120-71.8C1.9,474.3,6.7,473,11.5,473z
	 M-72.9,251.6C-72.9,251.6-72.9,251.6-72.9,251.6L-72.9,251.6z M95.9,251.5L95.9,251.5C95.9,251.5,95.9,251.5,95.9,251.5z"/>
</svg>
