<?xml version="1.0" standalone="no"?>
<!DOCTYPE svg PUBLIC "-//W3C//DTD SVG 20010904//EN"
 "http://www.w3.org/TR/2001/REC-SVG-20010904/DTD/svg10.dtd">
<svg version="1.0" xmlns="http://www.w3.org/2000/svg"
 width="700.000000pt" height="700.000000pt" viewBox="0 0 700.000000 700.000000"
 preserveAspectRatio="xMidYMid meet">
<metadata>
Created by potrace 1.11, written by Peter Selinger 2001-2013
</metadata>
<g transform="translate(0.000000,700.000000) scale(0.100000,-0.100000)"
fill="#000000" stroke="none">
<path d="M0 3500 l0 -3500 3500 0 3500 0 0 3500 0 3500 -3500 0 -3500 0 0
-3500z m4971 2960 c51 -14 76 -46 179 -225 379 -661 638 -1439 716 -2155 22
-192 24 -619 5 -805 -47 -476 -160 -875 -360 -1275 -106 -212 -145 -275 -185
-294 -30 -14 -105 -16 -689 -16 -393 0 -666 4 -681 10 -14 5 -32 21 -42 34
-22 34 -296 1151 -363 1481 -40 195 -40 195 -49 195 -4 0 -22 -64 -39 -143
-223 -978 -332 -1426 -369 -1515 -26 -63 -13 -62 -729 -62 -683 0 -686 0 -727
46 -29 33 -156 275 -219 417 -151 341 -238 667 -286 1067 -24 199 -23 644 0
860 66 593 230 1161 507 1751 83 178 219 429 299 549 65 99 -93 90 1551 90
921 0 1458 -4 1481 -10z m-3407 -5221 c32 -25 34 -61 4 -89 -51 -47 -147 5
-120 65 21 45 75 57 116 24z m2709 -6 c33 -31 16 -83 -34 -98 -54 -18 -112 34
-90 81 20 44 83 53 124 17z m-3413 -195 l-111 -153 57 -3 c78 -4 84 -1 84 53
l0 45 55 0 55 0 0 -50 0 -50 46 0 45 0 -3 -47 -3 -48 -42 -3 -43 -3 0 -50 0
-49 -60 0 -60 0 0 50 0 49 -137 3 -138 3 -3 38 c-4 41 -10 31 156 255 l83 112
65 0 64 0 -110 -152z m3230 107 l0 -45 -135 0 -135 0 0 -70 0 -70 120 0 120 0
0 -45 0 -44 -117 -3 -118 -3 -3 -92 -3 -93 -59 0 -60 0 0 255 0 255 195 0 195
0 0 -45z m410 -30 l0 -45 50 0 50 0 0 -44 0 -45 -47 -3 -48 -3 -3 -84 c-4
-106 12 -136 64 -128 32 5 36 3 51 -29 22 -45 10 -57 -64 -61 -72 -5 -121 17
-145 67 -14 26 -18 60 -18 133 l0 97 -30 0 c-29 0 -30 2 -30 45 0 43 1 45 30
45 29 0 30 1 30 50 l0 50 55 0 55 0 0 -45z m-1194 -36 c32 -6 67 -15 76 -20
17 -9 17 -12 -3 -50 -15 -31 -24 -39 -37 -34 -61 26 -141 25 -163 -2 -20 -23
8 -40 91 -57 90 -19 122 -40 134 -90 14 -53 -10 -98 -68 -125 -58 -29 -192
-33 -249 -8 l-38 16 21 41 c11 22 22 40 24 40 2 0 20 -7 41 -15 23 -10 59 -15
98 -13 58 3 62 4 62 27 0 27 -4 28 -117 51 -160 32 -154 201 8 239 53 12 53
12 120 0z m2652 -15 c37 -15 37 -13 15 -59 -12 -25 -22 -34 -32 -30 -81 31
-175 21 -169 -18 3 -22 12 -25 120 -47 77 -15 108 -45 108 -103 0 -87 -60
-127 -197 -129 -67 -2 -96 2 -120 15 -18 10 -33 20 -33 23 0 4 29 65 35 72 1
1 21 -5 45 -13 56 -20 144 -20 160 0 18 21 -3 43 -49 51 -137 23 -181 54 -181
130 0 59 37 101 105 120 55 15 140 10 193 -12z m385 4 c42 -13 43 -15 22 -64
-12 -28 -19 -35 -32 -29 -69 29 -173 20 -173 -15 0 -19 30 -32 105 -45 71 -12
105 -32 121 -71 19 -45 11 -83 -24 -117 -39 -37 -73 -47 -166 -49 -57 -1 -92
3 -119 15 l-38 16 16 38 c9 20 18 39 20 41 2 3 22 -3 45 -12 40 -16 124 -21
154 -10 28 11 18 41 -15 53 -18 6 -39 11 -49 11 -9 0 -40 7 -69 16 -57 17 -91
56 -91 107 0 108 134 161 293 115z m-3981 2 c78 -22 138 -102 138 -184 l0 -45
-152 -3 -153 -3 31 -32 c43 -43 93 -52 149 -25 l43 21 27 -29 c33 -35 29 -51
-22 -76 -28 -14 -59 -19 -120 -19 -74 0 -85 3 -125 30 -138 96 -107 318 52
363 47 14 87 14 132 2z m533 -9 c80 -36 120 -111 113 -212 -3 -46 -11 -67 -34
-96 -61 -77 -161 -103 -239 -63 -22 11 -41 20 -42 20 -2 0 -3 -40 -3 -90 l0
-90 -55 0 -55 0 0 270 0 270 55 0 c50 0 55 -2 55 -22 0 -20 1 -20 18 -5 44 40
123 47 187 18z m2129 -4 c70 -39 81 -70 81 -237 l0 -145 -55 0 -55 0 -5 133
c-5 126 -6 135 -29 153 -32 26 -74 24 -108 -5 -28 -24 -28 -26 -31 -155 l-4
-131 -54 0 -54 0 0 200 0 200 55 0 c49 0 55 -2 55 -21 0 -20 0 -20 28 -1 37
26 50 30 97 31 24 0 56 -8 79 -22z m439 12 c48 -13 113 -71 126 -112 6 -18 11
-50 13 -72 l3 -40 -155 -5 -155 -5 31 -32 c43 -43 93 -52 149 -25 l43 21 26
-28 c34 -36 33 -45 -10 -71 -44 -28 -145 -38 -200 -20 -86 28 -143 101 -144
184 -1 150 127 246 273 205z m-4203 -21 c0 -20 1 -20 20 -3 10 9 40 20 65 22
l45 6 0 -52 c0 -48 -1 -51 -25 -51 -38 0 -85 -27 -95 -56 -6 -14 -10 -75 -10
-135 l0 -109 -55 0 -55 0 0 200 0 200 55 0 c50 0 55 -2 55 -22z m310 -178 l0
-200 -55 0 -55 0 0 200 0 200 55 0 55 0 0 -200z m409 181 c33 -17 79 -67 69
-76 -2 -1 -21 -12 -43 -23 l-40 -20 -28 24 c-66 56 -167 11 -167 -75 0 -72 41
-121 100 -121 27 0 77 26 83 42 3 10 17 6 51 -12 25 -13 46 -26 46 -28 0 -15
-41 -57 -71 -73 -47 -24 -144 -26 -197 -3 -124 52 -165 191 -89 305 49 74 197
105 286 60z m2291 -181 l0 -200 -55 0 -55 0 0 200 0 200 55 0 55 0 0 -200z"/>
<path d="M2108 6248 c-37 -29 -408 -762 -408 -806 0 -5 62 -39 139 -75 418
-201 601 -292 734 -366 334 -185 585 -361 817 -574 l115 -105 50 47 c218 208
513 422 835 606 131 75 852 436 898 450 28 8 27 10 -35 155 -93 215 -287 588
-340 650 l-25 30 -1382 0 c-1090 0 -1386 -3 -1398 -12z"/>
<path d="M5330 5221 c-71 -28 -560 -272 -715 -357 -273 -149 -453 -262 -655
-412 -129 -96 -299 -262 -320 -312 -11 -26 -11 -61 -1 -199 13 -181 56 -420
167 -941 68 -318 247 -1048 265 -1081 9 -18 30 -19 573 -19 524 0 564 1 578
18 9 9 48 81 87 159 184 369 288 718 343 1153 9 70 13 221 13 450 0 301 -3
366 -23 510 -28 209 -72 424 -123 613 -42 158 -126 418 -137 429 -4 3 -27 -2
-52 -11z m-135 -921 c44 -27 52 -52 69 -220 33 -317 37 -405 26 -583 -35 -572
-154 -1015 -362 -1344 -50 -80 -80 -103 -130 -103 -30 0 -46 7 -69 29 -44 44
-39 81 23 182 193 316 290 689 318 1219 8 169 -2 589 -15 610 -10 16 -7 158 3
177 11 21 66 52 91 53 7 0 28 -9 46 -20z"/>
<path d="M1607 5213 c-2 -10 -28 -90 -56 -178 -153 -474 -224 -910 -224 -1380
0 -413 57 -770 179 -1130 74 -221 223 -544 277 -603 l20 -22 559 0 558 0 14
23 c7 12 35 112 61 222 26 110 78 331 116 490 147 612 173 740 234 1145 42
282 44 334 12 381 -74 108 -341 326 -600 488 -300 190 -1062 581 -1130 581 -8
0 -17 -8 -20 -17z m314 -912 l29 -30 -7 -88 c-14 -152 -9 -866 5 -983 45 -356
126 -616 273 -876 89 -158 97 -193 53 -237 -48 -48 -108 -43 -160 15 -54 58
-146 229 -205 382 -108 277 -167 586 -189 991 -15 266 1 662 31 777 20 79 113
105 170 49z"/>
<path d="M2229 961 c-16 -16 -29 -34 -29 -40 0 -7 34 -11 95 -11 52 0 95 4 95
9 0 38 -47 71 -100 71 -21 0 -41 -9 -61 -29z"/>
<path d="M2755 976 c-59 -26 -75 -121 -29 -175 21 -26 33 -31 68 -31 52 0 81
20 96 66 14 43 1 101 -28 127 -26 24 -72 29 -107 13z"/>
<path d="M5353 980 c-12 -5 -29 -23 -38 -39 l-16 -31 101 0 c56 0 100 4 100 9
0 6 -10 22 -23 36 -24 29 -86 42 -124 25z"/>
</g>
</svg>
